{"glyphs":{"0":{"ha":778,"x_min":0,"x_max":0,"o":"m 389 933 b 744 453 617 933 744 800 b 389 -17 744 106 617 -17 b 33 453 161 -17 33 106 b 389 933 33 800 161 933 m 390 767 b 231 453 279 767 231 692 b 390 150 231 228 279 150 b 547 453 501 150 547 228 b 390 767 547 692 501 767 "},"1":{"ha":778,"x_min":0,"x_max":0,"o":"m 406 917 l 581 917 l 581 0 l 389 0 l 389 700 l 190 572 l 103 715 "},"2":{"ha":778,"x_min":0,"x_max":0,"o":"m 90 0 l 90 163 l 286 361 b 472 643 406 483 472 554 b 322 764 472 736 429 764 b 106 743 228 764 106 743 l 96 892 b 371 933 96 892 232 933 b 669 671 581 933 669 842 b 464 311 669 529 615 449 l 304 167 l 685 167 l 685 0 "},"3":{"ha":778,"x_min":0,"x_max":0,"o":"m 86 883 b 353 933 86 883 214 933 b 674 681 594 933 674 851 b 567 475 674 581 633 519 b 690 276 643 433 690 400 b 378 -17 690 83 601 -17 b 79 31 242 -17 79 31 l 89 176 b 350 150 89 176 244 150 b 493 272 444 150 493 188 b 360 385 493 340 439 385 l 175 385 l 175 543 l 360 543 b 476 668 422 543 476 606 b 339 767 476 733 433 767 b 99 742 231 767 99 742 "},"4":{"ha":778,"x_min":0,"x_max":0,"o":"m 444 151 l 56 151 l 56 297 l 282 917 l 493 917 l 247 318 l 444 318 l 444 575 l 636 575 l 636 318 l 724 318 l 724 151 l 636 151 l 636 0 l 444 0 "},"5":{"ha":778,"x_min":0,"x_max":0,"o":"m 681 917 l 681 750 l 271 750 l 247 551 b 411 585 247 551 333 585 b 708 308 599 585 708 501 b 394 -17 708 101 594 -17 b 69 35 251 -17 69 35 l 90 176 b 371 150 90 176 258 150 b 511 288 461 150 511 200 b 383 418 511 381 471 418 b 210 394 286 418 210 394 l 96 421 l 121 917 "},"6":{"ha":778,"x_min":0,"x_max":0,"o":"m 689 746 b 431 767 689 746 547 767 b 246 553 304 767 246 679 b 421 588 246 551 354 588 b 736 290 628 588 736 497 b 400 -17 736 83 607 -17 b 49 454 156 -17 49 163 b 431 933 49 804 196 933 b 706 893 547 933 706 893 m 404 421 b 244 390 329 421 244 390 b 400 150 244 257 283 150 b 539 290 489 150 539 201 b 404 421 539 376 490 421 "},"7":{"ha":778,"x_min":0,"x_max":0,"o":"m 96 917 l 682 917 l 682 700 l 356 -17 l 178 33 l 490 701 l 490 746 l 96 746 "},"8":{"ha":778,"x_min":0,"x_max":0,"o":"m 386 933 b 724 682 583 933 724 843 b 624 472 724 572 703 536 b 738 249 697 411 738 364 b 386 -17 738 56 579 -17 b 39 233 193 -17 39 40 b 154 472 39 360 81 411 b 54 683 75 536 54 586 b 386 933 54 842 186 933 m 386 156 b 532 278 481 156 532 193 b 450 382 532 322 504 361 l 328 382 b 244 278 271 360 244 322 b 386 156 244 193 292 156 m 389 761 b 260 653 306 761 260 722 b 328 544 260 608 283 575 l 450 544 b 518 653 494 575 518 608 b 389 761 518 722 474 761 "},"9":{"ha":778,"x_min":0,"x_max":0,"o":"m 86 171 b 344 150 86 171 228 150 b 529 375 471 150 529 235 b 354 333 529 376 421 333 b 39 626 156 333 39 428 b 375 933 39 819 168 933 b 726 464 617 933 726 754 b 344 -17 726 100 579 -17 b 69 24 228 -17 69 24 m 371 500 b 531 532 446 500 531 532 b 375 767 531 661 492 767 b 236 626 286 767 236 715 b 371 500 236 542 286 500 "}," ":{"ha":306,"x_min":0,"x_max":0,"o":""},"´":{"ha":372,"x_min":0,"x_max":0,"o":"m 357 1046 l 413 886 l 49 783 l 7 904 "},"˘":{"ha":372,"x_min":0,"x_max":0,"o":"m 113 1014 b 200 922 119 958 150 922 b 288 1014 253 922 282 960 l 428 1014 b 200 796 414 903 339 796 b -28 1014 61 796 -14 903 "},"ˇ":{"ha":372,"x_min":0,"x_max":0,"o":"m -28 1015 l 143 1015 l 207 922 l 271 1015 l 442 1015 l 264 806 l 147 806 "},"¸":{"ha":367,"x_min":0,"x_max":0,"o":"m 325 -176 b 171 -335 325 -285 265 -335 b 42 -319 111 -335 42 -319 l 47 -211 b 114 -212 47 -211 90 -212 b 167 -176 151 -212 167 -200 b 114 -146 167 -153 151 -146 l 81 -146 l 81 1 l 154 1 l 154 -51 b 325 -176 263 -53 325 -72 "},"ˆ":{"ha":372,"x_min":0,"x_max":0,"o":"m 142 1015 l 258 1015 l 436 806 l 265 806 l 201 899 l 138 806 l -33 806 "},"":{"ha":236,"x_min":0,"x_max":0,"o":"m 57 -107 l 238 -107 l 161 -432 l -7 -432 "},"¨":{"ha":372,"x_min":0,"x_max":0,"o":"m -42 1011 l 136 1011 l 136 828 l -42 828 m 258 1011 l 436 1011 l 436 828 l 258 828 "},"˙":{"ha":372,"x_min":0,"x_max":0,"o":"m 93 960 l 279 960 l 279 772 l 93 772 "},"˝":{"ha":372,"x_min":0,"x_max":0,"o":"m 376 1136 l 528 1043 l 354 782 l 214 872 m 93 1135 l 244 1043 l 71 782 l -69 872 "},"`":{"ha":372,"x_min":0,"x_max":0,"o":"m 382 904 l 340 783 l -24 886 l 32 1046 "},"¯":{"ha":372,"x_min":0,"x_max":0,"o":"m -7 968 l 392 968 l 392 829 l -7 829 "},"˛":{"ha":658,"x_min":0,"x_max":0,"o":"m 558 1 b 478 -112 558 1 478 -64 b 522 -158 478 -143 497 -158 b 581 -153 532 -158 581 -153 l 597 -285 b 456 -300 597 -285 515 -300 b 304 -167 369 -300 304 -250 b 417 15 304 -54 417 15 l 558 1 "},"˚":{"ha":372,"x_min":0,"x_max":0,"o":"m 28 886 b 190 1049 28 976 97 1049 b 353 886 281 1049 353 976 b 190 724 353 793 281 724 b 28 886 97 724 28 793 m 128 886 b 192 822 128 849 154 822 b 254 886 228 822 254 849 b 192 949 254 922 228 949 b 128 886 154 949 128 922 "},"˜":{"ha":372,"x_min":0,"x_max":0,"o":"m 442 899 b 296 813 442 899 368 813 b 117 863 238 813 163 863 b 10 819 78 863 10 819 l -31 924 b 114 1007 -31 924 42 1007 b 290 957 171 1007 251 957 b 401 1004 326 957 401 1004 "},"A":{"ha":836,"x_min":0,"x_max":0,"o":"m 236 944 l 600 944 l 813 0 l 621 0 l 583 171 l 253 171 l 215 0 l 24 0 m 289 338 l 547 338 l 451 786 l 385 786 "},"Á":{"ha":836,"x_min":0,"x_max":0,"o":"m 236 944 l 600 944 l 813 0 l 621 0 l 583 171 l 253 171 l 215 0 l 24 0 m 289 338 l 547 338 l 451 786 l 385 786 m 575 1313 l 632 1146 l 271 1036 l 225 1165 "},"Ă":{"ha":836,"x_min":0,"x_max":0,"o":"m 236 944 l 600 944 l 813 0 l 621 0 l 583 171 l 253 171 l 215 0 l 24 0 m 289 338 l 547 338 l 451 786 l 385 786 m 322 1264 b 413 1185 329 1219 361 1185 b 504 1264 467 1185 499 1219 l 672 1264 b 413 1054 658 1146 581 1054 b 154 1264 244 1054 168 1146 "},"Â":{"ha":836,"x_min":0,"x_max":0,"o":"m 236 944 l 600 944 l 813 0 l 621 0 l 583 171 l 253 171 l 215 0 l 24 0 m 289 338 l 547 338 l 451 786 l 385 786 m 335 1269 l 497 1269 l 683 1063 l 486 1063 l 418 1140 l 346 1063 l 149 1063 "},"À":{"ha":836,"x_min":0,"x_max":0,"o":"m 236 944 l 600 944 l 813 0 l 621 0 l 583 171 l 253 171 l 215 0 l 24 0 m 289 338 l 547 338 l 451 786 l 385 786 m 604 1165 l 558 1036 l 197 1146 l 254 1313 "},"Ä":{"ha":836,"x_min":0,"x_max":0,"o":"m 236 944 l 600 944 l 813 0 l 621 0 l 583 171 l 253 171 l 215 0 l 24 0 m 289 338 l 547 338 l 451 786 l 385 786 m 179 1244 l 357 1244 l 357 1061 l 179 1061 m 476 1244 l 654 1244 l 654 1061 l 476 1061 "},"Ā":{"ha":836,"x_min":0,"x_max":0,"o":"m 236 944 l 600 944 l 813 0 l 621 0 l 583 171 l 253 171 l 215 0 l 24 0 m 289 338 l 547 338 l 451 786 l 385 786 m 172 1222 l 654 1222 l 654 1086 l 172 1086 "},"Ą":{"ha":836,"x_min":0,"x_max":0,"o":"m 236 944 l 600 944 l 813 0 l 788 0 b 710 -112 779 -7 710 -67 b 754 -158 710 -143 729 -158 b 813 -153 764 -158 813 -153 l 829 -285 b 688 -300 829 -285 747 -300 b 536 -167 601 -300 536 -250 b 628 0 536 -85 594 -26 l 621 0 l 583 171 l 253 171 l 215 0 l 24 0 m 289 338 l 547 338 l 451 786 l 385 786 "},"Å":{"ha":836,"x_min":0,"x_max":0,"o":"m 626 1001 b 606 919 626 969 618 943 l 813 0 l 621 0 l 583 171 l 253 171 l 215 0 l 24 0 l 231 919 b 210 1001 217 943 210 969 b 418 1176 210 1114 304 1176 b 626 1001 531 1176 626 1114 m 289 338 l 547 338 l 451 786 l 385 786 m 336 1001 b 410 944 336 968 364 946 l 418 944 b 500 1001 468 944 500 967 b 418 1058 500 1036 468 1058 b 336 1001 368 1058 336 1036 "},"Ã":{"ha":836,"x_min":0,"x_max":0,"o":"m 236 944 l 600 944 l 813 0 l 621 0 l 583 171 l 253 171 l 215 0 l 24 0 m 289 338 l 547 338 l 451 786 l 385 786 m 675 1140 b 526 1053 675 1140 601 1053 b 292 1117 454 1053 338 1117 b 181 1058 253 1117 181 1058 l 140 1192 b 289 1281 140 1192 215 1281 b 521 1217 374 1281 482 1217 b 635 1275 557 1217 635 1275 "},"Æ":{"ha":1210,"x_min":0,"x_max":0,"o":"m 544 161 l 249 161 l 208 0 l 17 0 l 272 958 l 1153 958 l 1153 775 l 733 775 l 733 576 l 1069 576 l 1069 394 l 733 394 l 733 183 l 1153 183 l 1153 0 l 544 0 m 296 346 l 544 346 l 546 775 l 407 775 "},"Ǽ":{"ha":1211,"x_min":0,"x_max":0,"o":"m 546 161 l 250 161 l 210 0 l 18 0 l 274 958 l 1154 958 l 1154 775 l 735 775 l 735 576 l 1071 576 l 1071 394 l 735 394 l 735 183 l 1154 183 l 1154 0 l 546 0 m 297 346 l 546 346 l 547 775 l 408 775 m 857 1313 l 914 1146 l 553 1036 l 507 1165 "},"B":{"ha":846,"x_min":0,"x_max":0,"o":"m 474 944 b 768 694 664 944 768 875 b 664 486 768 588 739 533 b 786 271 744 451 786 393 b 479 0 786 82 668 0 l 103 0 l 103 944 m 294 394 l 294 164 l 469 164 b 592 281 549 164 592 188 b 469 394 592 358 546 394 m 294 781 l 294 556 l 465 556 b 574 669 540 556 574 594 b 464 781 574 747 536 781 "},"C":{"ha":754,"x_min":0,"x_max":0,"o":"m 701 15 b 426 -17 638 1 513 -17 b 65 472 135 -17 65 142 b 426 961 65 831 146 961 b 703 924 525 961 644 938 l 697 771 b 454 792 633 781 517 792 b 263 472 308 792 263 740 b 460 153 263 218 296 153 b 697 172 524 153 642 164 "},"Ć":{"ha":754,"x_min":0,"x_max":0,"o":"m 701 15 b 426 -17 638 1 513 -17 b 65 472 135 -17 65 142 b 426 961 65 831 146 961 b 703 924 525 961 644 938 l 697 771 b 454 792 633 781 517 792 b 263 472 308 792 263 740 b 460 153 263 218 296 153 b 697 172 524 153 642 164 m 554 1313 l 611 1146 l 250 1036 l 204 1165 "},"Č":{"ha":754,"x_min":0,"x_max":0,"o":"m 701 15 b 426 -17 638 1 513 -17 b 65 472 135 -17 65 142 b 426 961 65 831 146 961 b 703 924 525 961 644 938 l 697 771 b 454 792 633 781 517 792 b 263 472 308 792 263 740 b 460 153 263 218 296 153 b 697 172 524 153 642 164 m 161 1269 l 358 1269 l 431 1192 l 499 1269 l 696 1269 l 510 1063 l 347 1063 "},"Ç":{"ha":754,"x_min":0,"x_max":0,"o":"m 608 -176 b 454 -335 608 -285 549 -335 b 325 -319 394 -335 325 -319 l 331 -211 b 397 -212 331 -211 374 -212 b 450 -176 435 -212 450 -200 b 397 -146 450 -153 435 -146 l 364 -146 l 364 -14 b 65 472 125 8 65 167 b 426 961 65 831 146 961 b 703 924 525 961 644 938 l 697 771 b 454 792 633 781 517 792 b 263 472 308 792 263 740 b 460 153 263 218 296 153 b 697 172 524 153 642 164 l 701 15 b 438 -17 640 1 522 -15 l 438 -51 b 608 -176 546 -53 608 -72 "},"Ĉ":{"ha":754,"x_min":0,"x_max":0,"o":"m 701 15 b 426 -17 638 1 513 -17 b 65 472 135 -17 65 142 b 426 961 65 831 146 961 b 703 924 525 961 644 938 l 697 771 b 454 792 633 781 517 792 b 263 472 308 792 263 740 b 460 153 263 218 296 153 b 697 172 524 153 642 164 m 335 1269 l 497 1269 l 683 1063 l 486 1063 l 418 1140 l 346 1063 l 149 1063 "},"Ċ":{"ha":754,"x_min":0,"x_max":0,"o":"m 701 15 b 426 -17 638 1 513 -17 b 65 472 135 -17 65 142 b 426 961 65 831 146 961 b 703 924 525 961 644 938 l 697 771 b 454 792 633 781 517 792 b 263 472 308 792 263 740 b 460 153 263 218 296 153 b 697 172 524 153 642 164 m 304 1243 l 490 1243 l 490 1056 l 304 1056 "},"D":{"ha":886,"x_min":0,"x_max":0,"o":"m 103 0 l 103 944 l 421 944 b 822 490 750 944 822 804 b 421 0 822 168 760 0 m 625 490 b 421 778 625 697 607 778 l 294 778 l 294 167 l 421 167 b 625 490 607 167 625 281 "},"Ď":{"ha":886,"x_min":0,"x_max":0,"o":"m 103 0 l 103 944 l 421 944 b 822 490 750 944 822 804 b 421 0 822 168 760 0 m 625 490 b 421 778 625 697 607 778 l 294 778 l 294 167 l 421 167 b 625 490 607 167 625 281 m 156 1269 l 353 1269 l 425 1192 l 493 1269 l 690 1269 l 504 1063 l 342 1063 "},"Đ":{"ha":892,"x_min":0,"x_max":0,"o":"m 35 568 l 110 568 l 110 958 l 425 958 b 826 497 754 958 826 814 b 425 0 826 172 764 0 l 110 0 l 110 385 l 35 385 m 629 497 b 425 776 629 692 611 776 l 299 776 l 299 568 l 479 568 l 479 385 l 299 385 l 299 182 l 425 182 b 629 497 611 182 629 300 "},"E":{"ha":769,"x_min":0,"x_max":0,"o":"m 103 944 l 714 944 l 714 778 l 294 778 l 294 557 l 631 557 l 631 393 l 294 393 l 294 167 l 714 167 l 714 0 l 103 0 "},"É":{"ha":769,"x_min":0,"x_max":0,"o":"m 103 944 l 714 944 l 714 778 l 294 778 l 294 557 l 631 557 l 631 393 l 294 393 l 294 167 l 714 167 l 714 0 l 103 0 m 564 1313 l 621 1146 l 260 1036 l 214 1165 "},"Ĕ":{"ha":769,"x_min":0,"x_max":0,"o":"m 103 944 l 714 944 l 714 778 l 294 778 l 294 557 l 631 557 l 631 393 l 294 393 l 294 167 l 714 167 l 714 0 l 103 0 m 326 1264 b 417 1185 333 1219 365 1185 b 508 1264 471 1185 503 1219 l 676 1264 b 417 1054 663 1146 585 1054 b 158 1264 249 1054 172 1146 "},"Ě":{"ha":769,"x_min":0,"x_max":0,"o":"m 103 944 l 714 944 l 714 778 l 294 778 l 294 557 l 631 557 l 631 393 l 294 393 l 294 167 l 714 167 l 714 0 l 103 0 m 121 1269 l 318 1269 l 390 1192 l 458 1269 l 656 1269 l 469 1063 l 307 1063 "},"Ê":{"ha":769,"x_min":0,"x_max":0,"o":"m 103 944 l 714 944 l 714 778 l 294 778 l 294 557 l 631 557 l 631 393 l 294 393 l 294 167 l 714 167 l 714 0 l 103 0 m 332 1269 l 494 1269 l 681 1063 l 483 1063 l 415 1140 l 343 1063 l 146 1063 "},"Ë":{"ha":769,"x_min":0,"x_max":0,"o":"m 103 944 l 714 944 l 714 778 l 294 778 l 294 557 l 631 557 l 631 393 l 294 393 l 294 167 l 714 167 l 714 0 l 103 0 m 171 1244 l 349 1244 l 349 1061 l 171 1061 m 468 1244 l 646 1244 l 646 1061 l 468 1061 "},"Ė":{"ha":769,"x_min":0,"x_max":0,"o":"m 103 944 l 714 944 l 714 778 l 294 778 l 294 557 l 631 557 l 631 393 l 294 393 l 294 167 l 714 167 l 714 0 l 103 0 m 324 1253 l 510 1253 l 510 1065 l 324 1065 "},"È":{"ha":769,"x_min":0,"x_max":0,"o":"m 103 944 l 714 944 l 714 778 l 294 778 l 294 557 l 631 557 l 631 393 l 294 393 l 294 167 l 714 167 l 714 0 l 103 0 m 600 1165 l 554 1036 l 193 1146 l 250 1313 "},"Ē":{"ha":769,"x_min":0,"x_max":0,"o":"m 103 944 l 714 944 l 714 778 l 294 778 l 294 557 l 631 557 l 631 393 l 294 393 l 294 167 l 714 167 l 714 0 l 103 0 m 161 1222 l 643 1222 l 643 1086 l 161 1086 "},"Ę":{"ha":769,"x_min":0,"x_max":0,"o":"m 103 944 l 714 944 l 714 778 l 294 778 l 294 557 l 631 557 l 631 393 l 294 393 l 294 167 l 714 167 l 714 0 l 675 0 b 597 -112 667 -7 597 -67 b 642 -158 597 -143 617 -158 b 700 -153 651 -158 700 -153 l 717 -285 b 575 -300 717 -285 635 -300 b 424 -167 489 -300 424 -250 b 515 0 424 -85 482 -26 l 103 0 "},"F":{"ha":738,"x_min":0,"x_max":0,"o":"m 103 944 l 706 944 l 706 778 l 294 778 l 294 500 l 631 500 l 631 333 l 294 333 l 294 0 l 103 0 "},"G":{"ha":849,"x_min":0,"x_max":0,"o":"m 496 506 l 771 506 l 771 15 b 449 -17 771 15 572 -17 b 63 472 140 -17 63 156 b 442 961 63 817 163 961 b 771 922 588 961 771 922 l 765 774 b 472 792 765 774 599 792 b 260 472 308 792 260 738 b 467 150 260 221 294 150 b 582 156 524 150 582 156 l 582 339 l 496 339 "},"Ğ":{"ha":849,"x_min":0,"x_max":0,"o":"m 496 506 l 771 506 l 771 15 b 449 -17 771 15 572 -17 b 63 472 140 -17 63 156 b 442 961 63 817 163 961 b 771 922 588 961 771 922 l 765 774 b 472 792 765 774 599 792 b 260 472 308 792 260 738 b 467 150 260 221 294 150 b 582 156 524 150 582 156 l 582 339 l 496 339 m 357 1264 b 447 1185 364 1219 396 1185 b 539 1264 501 1185 533 1219 l 707 1264 b 447 1054 693 1146 615 1054 b 189 1264 279 1054 203 1146 "},"Ĝ":{"ha":849,"x_min":0,"x_max":0,"o":"m 496 506 l 771 506 l 771 15 b 449 -17 771 15 572 -17 b 63 472 140 -17 63 156 b 442 961 63 817 163 961 b 771 922 588 961 771 922 l 765 774 b 472 792 765 774 599 792 b 260 472 308 792 260 738 b 467 150 260 221 294 150 b 582 156 524 150 582 156 l 582 339 l 496 339 m 375 1269 l 538 1269 l 724 1063 l 526 1063 l 458 1140 l 386 1063 l 189 1063 "},"Ģ":{"ha":849,"x_min":0,"x_max":0,"o":"m 496 506 l 771 506 l 771 15 b 449 -17 771 15 572 -17 b 63 472 140 -17 63 156 b 442 961 63 817 163 961 b 771 922 588 961 771 922 l 765 774 b 472 792 765 774 599 792 b 260 472 308 792 260 738 b 467 150 260 221 294 150 b 582 156 524 150 582 156 l 582 339 l 496 339 m 306 -432 l 474 -432 l 550 -107 l 369 -107 "},"Ġ":{"ha":849,"x_min":0,"x_max":0,"o":"m 496 506 l 771 506 l 771 15 b 449 -17 771 15 572 -17 b 63 472 140 -17 63 156 b 442 961 63 817 163 961 b 771 922 588 961 771 922 l 765 774 b 472 792 765 774 599 792 b 260 472 308 792 260 738 b 467 150 260 221 294 150 b 582 156 524 150 582 156 l 582 339 l 496 339 m 340 1253 l 526 1253 l 526 1065 l 340 1065 "},"H":{"ha":940,"x_min":0,"x_max":0,"o":"m 646 392 l 294 392 l 294 0 l 103 0 l 103 944 l 294 944 l 294 558 l 646 558 l 646 944 l 838 944 l 838 0 l 646 0 "},"Ħ":{"ha":951,"x_min":0,"x_max":0,"o":"m 26 836 l 108 836 l 108 944 l 300 944 l 300 836 l 651 836 l 651 944 l 843 944 l 843 836 l 935 836 l 935 675 l 843 675 l 843 0 l 651 0 l 651 392 l 300 392 l 300 0 l 108 0 l 108 675 l 26 675 m 651 558 l 651 675 l 300 675 l 300 558 "},"Ĥ":{"ha":940,"x_min":0,"x_max":0,"o":"m 646 392 l 294 392 l 294 0 l 103 0 l 103 944 l 294 944 l 294 558 l 646 558 l 646 944 l 838 944 l 838 0 l 646 0 m 389 1269 l 551 1269 l 738 1063 l 540 1063 l 472 1140 l 400 1063 l 203 1063 "},"I":{"ha":397,"x_min":0,"x_max":0,"o":"m 103 944 l 294 944 l 294 0 l 103 0 "},"Í":{"ha":397,"x_min":0,"x_max":0,"o":"m 103 944 l 294 944 l 294 0 l 103 0 m 360 1313 l 417 1146 l 56 1036 l 10 1165 "},"Ĭ":{"ha":397,"x_min":0,"x_max":0,"o":"m 103 944 l 294 944 l 294 0 l 103 0 m 132 1264 b 222 1185 139 1219 171 1185 b 314 1264 276 1185 308 1219 l 482 1264 b 222 1054 468 1146 390 1054 b -36 1264 54 1054 -22 1146 "},"Î":{"ha":397,"x_min":0,"x_max":0,"o":"m 103 944 l 294 944 l 294 0 l 103 0 m 117 1269 l 279 1269 l 465 1063 l 268 1063 l 200 1140 l 128 1063 l -69 1063 "},"Ï":{"ha":397,"x_min":0,"x_max":0,"o":"m 103 944 l 294 944 l 294 0 l 103 0 m -39 1244 l 139 1244 l 139 1061 l -39 1061 m 258 1244 l 436 1244 l 436 1061 l 258 1061 "},"İ":{"ha":397,"x_min":0,"x_max":0,"o":"m 103 944 l 294 944 l 294 0 l 103 0 m 106 1253 l 292 1253 l 292 1065 l 106 1065 "},"Ì":{"ha":397,"x_min":0,"x_max":0,"o":"m 103 944 l 294 944 l 294 0 l 103 0 m 374 1165 l 328 1036 l -33 1146 l 24 1313 "},"Ī":{"ha":397,"x_min":0,"x_max":0,"o":"m 103 944 l 294 944 l 294 0 l 103 0 m -37 1222 l 444 1222 l 444 1086 l -37 1086 "},"Į":{"ha":397,"x_min":0,"x_max":0,"o":"m 103 944 l 294 944 l 294 0 b 201 -112 294 0 201 -64 b 246 -158 201 -143 221 -158 b 304 -153 256 -158 304 -153 l 321 -285 b 179 -300 321 -285 239 -300 b 28 -167 93 -300 28 -250 b 122 0 28 -85 89 -26 l 103 0 "},"Ĩ":{"ha":397,"x_min":0,"x_max":0,"o":"m 103 944 l 294 944 l 294 0 l 103 0 m 464 1140 b 315 1053 464 1140 390 1053 b 81 1117 243 1053 126 1117 b -31 1058 42 1117 -31 1058 l -71 1192 b 78 1281 -71 1192 4 1281 b 310 1217 163 1281 271 1217 b 424 1275 346 1217 424 1275 "},"J":{"ha":419,"x_min":0,"x_max":0,"o":"m 324 160 b 26 -97 324 -49 235 -97 l 26 69 b 132 168 96 69 132 89 l 132 944 l 322 944 "},"Ĵ":{"ha":419,"x_min":0,"x_max":0,"o":"m 324 160 b 26 -97 324 -49 235 -97 l 26 69 b 132 168 96 69 132 89 l 132 944 l 322 944 m 146 1269 l 308 1269 l 494 1063 l 297 1063 l 229 1140 l 157 1063 l -40 1063 "},"K":{"ha":824,"x_min":0,"x_max":0,"o":"m 422 376 l 294 363 l 294 0 l 103 0 l 103 944 l 294 944 l 294 529 l 422 543 l 578 944 l 796 944 l 590 471 l 801 0 l 581 0 "},"Ķ":{"ha":821,"x_min":0,"x_max":0,"o":"m 422 376 l 294 363 l 294 0 l 103 0 l 103 958 l 294 958 l 294 547 l 419 561 l 575 958 l 796 958 l 590 482 l 801 0 l 581 0 m 276 -432 l 444 -432 l 521 -107 l 340 -107 "},"L":{"ha":656,"x_min":0,"x_max":0,"o":"m 103 0 l 103 944 l 294 944 l 294 169 l 640 169 l 640 0 "},"Ĺ":{"ha":657,"x_min":0,"x_max":0,"o":"m 103 0 l 103 958 l 294 958 l 294 185 l 640 185 l 640 0 m 503 1313 l 560 1146 l 199 1036 l 153 1165 "},"Ľ":{"ha":692,"x_min":0,"x_max":0,"o":"m 640 597 l 460 597 l 460 958 l 640 958 m 103 0 l 103 944 l 294 944 l 294 169 l 640 169 l 640 0 "},"Ļ":{"ha":656,"x_min":0,"x_max":0,"o":"m 219 -432 l 388 -432 l 464 -107 l 283 -107 m 103 0 l 103 944 l 294 944 l 294 169 l 640 169 l 640 0 "},"Ł":{"ha":668,"x_min":0,"x_max":0,"o":"m 115 0 l 115 301 l 57 261 l -33 386 l 115 490 l 115 944 l 307 944 l 307 624 l 444 721 l 535 596 l 307 436 l 307 169 l 653 169 l 653 0 "},"M":{"ha":1192,"x_min":0,"x_max":0,"o":"m 103 944 l 429 944 l 596 256 l 763 944 l 1089 944 l 1089 0 l 897 0 l 897 731 l 876 731 l 692 42 l 500 42 l 315 731 l 294 731 l 294 0 l 103 0 "},"N":{"ha":963,"x_min":0,"x_max":0,"o":"m 103 944 l 426 944 l 654 167 l 668 167 l 668 944 l 860 944 l 860 0 l 544 0 l 308 778 l 294 778 l 294 0 l 103 0 "},"Ń":{"ha":963,"x_min":0,"x_max":0,"o":"m 103 944 l 426 944 l 654 167 l 668 167 l 668 944 l 860 944 l 860 0 l 544 0 l 308 778 l 294 778 l 294 0 l 103 0 m 631 1313 l 688 1146 l 326 1036 l 281 1165 "},"Ň":{"ha":963,"x_min":0,"x_max":0,"o":"m 103 944 l 426 944 l 654 167 l 668 167 l 668 944 l 860 944 l 860 0 l 544 0 l 308 778 l 294 778 l 294 0 l 103 0 m 215 1269 l 413 1269 l 485 1192 l 553 1269 l 750 1269 l 564 1063 l 401 1063 "},"Ņ":{"ha":963,"x_min":0,"x_max":0,"o":"m 351 -432 l 519 -432 l 596 -107 l 415 -107 m 103 944 l 426 944 l 654 167 l 668 167 l 668 944 l 860 944 l 860 0 l 544 0 l 308 778 l 294 778 l 294 0 l 103 0 "},"Ñ":{"ha":963,"x_min":0,"x_max":0,"o":"m 103 944 l 426 944 l 654 167 l 668 167 l 668 944 l 860 944 l 860 0 l 544 0 l 308 778 l 294 778 l 294 0 l 103 0 m 742 1140 b 593 1053 742 1140 668 1053 b 358 1117 521 1053 404 1117 b 247 1058 319 1117 247 1058 l 207 1192 b 356 1281 207 1192 282 1281 b 588 1217 440 1281 549 1217 b 701 1275 624 1217 701 1275 "},"O":{"ha":906,"x_min":0,"x_max":0,"o":"m 453 150 b 647 467 608 150 647 249 b 453 794 647 685 608 794 b 258 467 297 794 258 685 b 453 150 258 249 297 150 m 453 -17 b 61 467 156 -17 61 147 b 453 961 61 786 156 961 b 844 467 750 961 844 786 b 453 -17 844 147 750 -17 "},"Ó":{"ha":906,"x_min":0,"x_max":0,"o":"m 453 150 b 647 467 608 150 647 249 b 453 794 647 685 608 794 b 258 467 297 794 258 685 b 453 150 258 249 297 150 m 453 -17 b 61 467 156 -17 61 147 b 453 961 61 786 156 961 b 844 467 750 961 844 786 b 453 -17 844 147 750 -17 m 582 1313 l 639 1146 l 278 1036 l 232 1165 "},"Ŏ":{"ha":906,"x_min":0,"x_max":0,"o":"m 453 150 b 647 467 608 150 647 249 b 453 794 647 685 608 794 b 258 467 297 794 258 685 b 453 150 258 249 297 150 m 453 -17 b 61 467 156 -17 61 147 b 453 961 61 786 156 961 b 844 467 750 961 844 786 b 453 -17 844 147 750 -17 m 364 1264 b 454 1185 371 1219 403 1185 b 546 1264 508 1185 540 1219 l 714 1264 b 454 1054 700 1146 622 1054 b 196 1264 286 1054 210 1146 "},"Ô":{"ha":906,"x_min":0,"x_max":0,"o":"m 453 150 b 647 467 608 150 647 249 b 453 794 647 685 608 794 b 258 467 297 794 258 685 b 453 150 258 249 297 150 m 453 -17 b 61 467 156 -17 61 147 b 453 961 61 786 156 961 b 844 467 750 961 844 786 b 453 -17 844 147 750 -17 m 374 1269 l 536 1269 l 722 1063 l 525 1063 l 457 1140 l 385 1063 l 188 1063 "},"Ö":{"ha":906,"x_min":0,"x_max":0,"o":"m 453 150 b 647 467 608 150 647 249 b 453 794 647 685 608 794 b 258 467 297 794 258 685 b 453 150 258 249 297 150 m 453 -17 b 61 467 156 -17 61 147 b 453 961 61 786 156 961 b 844 467 750 961 844 786 b 453 -17 844 147 750 -17 m 215 1244 l 393 1244 l 393 1061 l 215 1061 m 513 1244 l 690 1244 l 690 1061 l 513 1061 "},"Ò":{"ha":906,"x_min":0,"x_max":0,"o":"m 453 150 b 647 467 608 150 647 249 b 453 794 647 685 608 794 b 258 467 297 794 258 685 b 453 150 258 249 297 150 m 453 -17 b 61 467 156 -17 61 147 b 453 961 61 786 156 961 b 844 467 750 961 844 786 b 453 -17 844 147 750 -17 m 633 1165 l 588 1036 l 226 1146 l 283 1313 "},"Ő":{"ha":906,"x_min":0,"x_max":0,"o":"m 453 150 b 647 467 608 150 647 249 b 453 794 647 685 608 794 b 258 467 297 794 258 685 b 453 150 258 249 297 150 m 453 -17 b 61 467 156 -17 61 147 b 453 961 61 786 156 961 b 844 467 750 961 844 786 b 453 -17 844 147 750 -17 m 601 1350 l 763 1292 l 654 1026 l 508 1076 m 313 1351 l 474 1293 l 365 1028 l 219 1078 "},"Ō":{"ha":906,"x_min":0,"x_max":0,"o":"m 453 150 b 647 467 608 150 647 249 b 453 794 647 685 608 794 b 258 467 297 794 258 685 b 453 150 258 249 297 150 m 453 -17 b 61 467 156 -17 61 147 b 453 961 61 786 156 961 b 844 467 750 961 844 786 b 453 -17 844 147 750 -17 m 207 1222 l 689 1222 l 689 1086 l 207 1086 "},"Ø":{"ha":906,"x_min":0,"x_max":0,"o":"m 453 -17 b 319 -3 403 -17 358 -11 l 239 -176 l 103 -108 l 183 64 b 61 467 94 143 61 276 b 453 961 61 786 156 961 b 593 944 506 961 553 956 l 678 1125 l 817 1065 l 726 871 b 844 467 811 789 844 653 b 453 -17 844 147 750 -17 m 258 467 b 279 269 258 385 264 319 l 519 785 b 453 794 500 790 478 794 b 258 467 297 794 258 685 m 453 150 b 647 467 608 150 647 249 b 628 660 647 546 642 610 l 393 156 b 453 150 411 151 431 150 "},"Ǿ":{"ha":908,"x_min":0,"x_max":0,"o":"m 454 -17 b 321 -3 404 -17 360 -11 l 240 -176 l 104 -108 l 185 64 b 63 467 96 143 63 276 b 454 961 63 786 157 961 b 594 944 507 961 554 956 l 679 1125 l 818 1065 l 728 871 b 846 467 813 789 846 653 b 454 -17 846 147 751 -17 m 260 467 b 281 269 260 385 265 319 l 521 785 b 454 794 501 790 479 794 b 260 467 299 794 260 685 m 454 150 b 649 467 610 150 649 249 b 629 660 649 546 643 610 l 394 156 b 454 150 413 151 432 150 m 586 1313 l 643 1146 l 282 1036 l 236 1165 "},"Õ":{"ha":906,"x_min":0,"x_max":0,"o":"m 453 150 b 647 467 608 150 647 249 b 453 794 647 685 608 794 b 258 467 297 794 258 685 b 453 150 258 249 297 150 m 453 -17 b 61 467 156 -17 61 147 b 453 961 61 786 156 961 b 844 467 750 961 844 786 b 453 -17 844 147 750 -17 m 719 1140 b 571 1053 719 1140 646 1053 b 336 1117 499 1053 382 1117 b 225 1058 297 1117 225 1058 l 185 1192 b 333 1281 185 1192 260 1281 b 565 1217 418 1281 526 1217 b 679 1275 601 1217 679 1275 "},"Œ":{"ha":1253,"x_min":0,"x_max":0,"o":"m 590 0 b 425 -17 538 -8 476 -17 b 64 479 133 -17 64 146 b 425 975 64 840 158 975 b 588 958 476 975 536 967 l 1196 958 l 1196 775 l 776 775 l 776 576 l 1113 576 l 1113 394 l 776 394 l 776 183 l 1196 183 l 1196 0 m 458 172 b 588 181 489 172 540 176 l 588 778 b 453 786 539 782 488 786 b 261 479 307 786 261 731 b 458 172 261 242 294 172 "},"P":{"ha":818,"x_min":0,"x_max":0,"o":"m 294 275 l 294 0 l 103 0 l 103 944 l 450 944 b 786 617 672 944 786 836 b 450 275 786 397 672 275 m 449 439 b 592 617 544 439 592 497 b 449 781 592 735 544 781 l 294 781 l 294 439 "},"Q":{"ha":906,"x_min":0,"x_max":0,"o":"m 514 -12 b 453 -17 504 -15 474 -17 b 61 467 156 -17 61 144 b 453 961 61 786 156 961 b 844 467 750 961 844 786 b 699 51 844 261 803 128 l 814 -135 l 639 -217 m 453 150 b 647 467 608 150 647 246 b 453 794 647 685 608 794 b 258 467 297 794 258 685 b 453 150 258 246 297 150 "},"R":{"ha":861,"x_min":0,"x_max":0,"o":"m 294 317 l 294 0 l 103 0 l 103 944 l 469 944 b 803 633 685 944 803 849 b 664 361 803 503 750 415 l 799 0 l 589 0 l 479 317 m 607 631 b 469 781 607 721 561 781 l 294 781 l 294 481 l 472 481 b 607 631 568 481 607 547 "},"Ŕ":{"ha":861,"x_min":0,"x_max":0,"o":"m 479 317 l 589 0 l 799 0 l 664 361 b 803 633 750 415 803 503 b 469 944 803 849 685 944 l 103 944 l 103 0 l 294 0 l 294 317 m 607 631 b 472 481 607 547 568 481 l 294 481 l 294 781 l 469 781 b 607 631 561 781 607 721 m 586 1313 l 643 1146 l 282 1036 l 236 1165 "},"Ř":{"ha":861,"x_min":0,"x_max":0,"o":"m 294 317 l 294 0 l 103 0 l 103 944 l 469 944 b 803 633 685 944 803 849 b 664 361 803 503 750 415 l 799 0 l 589 0 l 479 317 m 607 631 b 469 781 607 721 561 781 l 294 781 l 294 481 l 472 481 b 607 631 568 481 607 547 m 149 1269 l 346 1269 l 418 1192 l 486 1269 l 683 1269 l 497 1063 l 335 1063 "},"Ŗ":{"ha":861,"x_min":0,"x_max":0,"o":"m 357 -107 l 538 -107 l 461 -432 l 293 -432 m 294 317 l 294 0 l 103 0 l 103 944 l 469 944 b 803 633 685 944 803 849 b 664 361 803 503 750 415 l 799 0 l 589 0 l 479 317 m 607 631 b 469 781 607 721 561 781 l 294 781 l 294 481 l 472 481 b 607 631 568 481 607 547 "},"S":{"ha":756,"x_min":0,"x_max":0,"o":"m 669 772 b 393 794 669 772 474 794 b 242 694 290 794 242 757 b 438 564 242 635 279 614 b 704 285 642 499 704 442 b 378 -17 704 79 564 -17 b 63 26 249 -17 63 26 l 82 175 b 367 150 82 175 268 150 b 514 272 469 150 514 199 b 344 396 514 331 481 357 b 51 681 132 457 51 529 b 374 961 51 876 182 961 b 685 924 500 961 685 924 "},"Ś":{"ha":756,"x_min":0,"x_max":0,"o":"m 669 772 b 393 794 669 772 474 794 b 242 694 290 794 242 757 b 438 564 242 635 279 614 b 704 285 642 499 704 442 b 378 -17 704 79 564 -17 b 63 26 249 -17 63 26 l 82 175 b 367 150 82 175 268 150 b 514 272 469 150 514 199 b 344 396 514 331 481 357 b 51 681 132 457 51 529 b 374 961 51 876 182 961 b 685 924 500 961 685 924 m 550 1313 l 607 1146 l 246 1036 l 200 1165 "},"Š":{"ha":756,"x_min":0,"x_max":0,"o":"m 669 772 b 393 794 669 772 474 794 b 242 694 290 794 242 757 b 438 564 242 635 279 614 b 704 285 642 499 704 442 b 378 -17 704 79 564 -17 b 63 26 249 -17 63 26 l 82 175 b 367 150 82 175 268 150 b 514 272 469 150 514 199 b 344 396 514 331 481 357 b 51 681 132 457 51 529 b 374 961 51 876 182 961 b 685 924 500 961 685 924 m 140 1269 l 338 1269 l 410 1192 l 478 1269 l 675 1269 l 489 1063 l 326 1063 "},"Ş":{"ha":756,"x_min":0,"x_max":0,"o":"m 603 -176 b 449 -335 603 -285 543 -335 b 319 -319 389 -335 319 -319 l 325 -211 b 392 -212 325 -211 368 -212 b 444 -176 429 -212 444 -200 b 392 -146 444 -153 429 -146 l 358 -146 l 358 -17 b 63 26 231 -12 63 26 l 82 175 b 367 150 82 175 268 150 b 514 272 469 150 514 199 b 344 396 514 331 481 357 b 51 681 132 457 51 529 b 374 961 51 876 182 961 b 685 924 500 961 685 924 l 669 772 b 393 794 669 772 474 794 b 242 694 290 794 242 757 b 438 564 242 635 279 614 b 704 285 642 499 704 442 b 432 -14 704 100 590 3 l 432 -51 b 603 -176 540 -53 603 -72 "},"Ŝ":{"ha":756,"x_min":0,"x_max":0,"o":"m 669 772 b 393 794 669 772 474 794 b 242 694 290 794 242 757 b 438 564 242 635 279 614 b 704 285 642 499 704 442 b 378 -17 704 79 564 -17 b 63 26 249 -17 63 26 l 82 175 b 367 150 82 175 268 150 b 514 272 469 150 514 199 b 344 396 514 331 481 357 b 51 681 132 457 51 529 b 374 961 51 876 182 961 b 685 924 500 961 685 924 m 303 1269 l 465 1269 l 651 1063 l 454 1063 l 386 1140 l 314 1063 l 117 1063 "},"Ș":{"ha":756,"x_min":0,"x_max":0,"o":"m 235 -432 l 403 -432 l 479 -107 l 299 -107 m 669 772 b 393 794 669 772 474 794 b 242 694 290 794 242 757 b 438 564 242 635 279 614 b 704 285 642 499 704 442 b 378 -17 704 79 564 -17 b 63 26 249 -17 63 26 l 82 175 b 367 150 82 175 268 150 b 514 272 469 150 514 199 b 344 396 514 331 481 357 b 51 681 132 457 51 529 b 374 961 51 876 182 961 b 685 924 500 961 685 924 "},"T":{"ha":731,"x_min":0,"x_max":0,"o":"m 18 944 l 713 944 l 713 775 l 463 775 l 463 0 l 271 0 l 271 775 l 18 775 "},"Ŧ":{"ha":733,"x_min":0,"x_max":0,"o":"m 19 944 l 714 944 l 714 775 l 464 775 l 464 513 l 657 513 l 657 351 l 464 351 l 464 0 l 272 0 l 272 351 l 89 351 l 89 513 l 272 513 l 272 775 l 19 775 "},"Ť":{"ha":731,"x_min":0,"x_max":0,"o":"m 18 944 l 713 944 l 713 775 l 463 775 l 463 0 l 271 0 l 271 775 l 18 775 m 100 1269 l 297 1269 l 369 1192 l 438 1269 l 635 1269 l 449 1063 l 286 1063 "},"Ț":{"ha":731,"x_min":0,"x_max":0,"o":"m 246 -432 l 414 -432 l 490 -107 l 310 -107 m 18 944 l 713 944 l 713 775 l 463 775 l 463 0 l 271 0 l 271 775 l 18 775 "},"U":{"ha":908,"x_min":0,"x_max":0,"o":"m 286 315 b 454 150 286 203 342 150 b 622 315 567 150 622 204 l 622 944 l 814 944 l 814 319 b 454 -17 814 83 690 -17 b 94 319 218 -17 94 83 l 94 944 l 286 944 l 286 315 "},"Ú":{"ha":908,"x_min":0,"x_max":0,"o":"m 286 315 b 454 150 286 203 342 150 b 622 315 567 150 622 204 l 622 944 l 814 944 l 814 319 b 454 -17 814 83 690 -17 b 94 319 218 -17 94 83 l 94 944 l 286 944 l 286 315 m 593 1313 l 650 1146 l 289 1036 l 243 1165 "},"Ŭ":{"ha":908,"x_min":0,"x_max":0,"o":"m 286 315 b 454 150 286 203 342 150 b 622 315 567 150 622 204 l 622 944 l 814 944 l 814 319 b 454 -17 814 83 690 -17 b 94 319 218 -17 94 83 l 94 944 l 286 944 l 286 315 m 369 1264 b 460 1185 376 1219 408 1185 b 551 1264 514 1185 546 1219 l 719 1264 b 460 1054 706 1146 628 1054 b 201 1264 292 1054 215 1146 "},"Û":{"ha":908,"x_min":0,"x_max":0,"o":"m 286 315 b 454 150 286 203 342 150 b 622 315 567 150 622 204 l 622 944 l 814 944 l 814 319 b 454 -17 814 83 690 -17 b 94 319 218 -17 94 83 l 94 944 l 286 944 l 286 315 m 374 1269 l 536 1269 l 722 1063 l 525 1063 l 457 1140 l 385 1063 l 188 1063 "},"Ü":{"ha":908,"x_min":0,"x_max":0,"o":"m 286 315 b 454 150 286 203 342 150 b 622 315 567 150 622 204 l 622 944 l 814 944 l 814 319 b 454 -17 814 83 690 -17 b 94 319 218 -17 94 83 l 94 944 l 286 944 l 286 315 m 217 1244 l 394 1244 l 394 1061 l 217 1061 m 514 1244 l 692 1244 l 692 1061 l 514 1061 "},"Ù":{"ha":908,"x_min":0,"x_max":0,"o":"m 286 315 b 454 150 286 203 342 150 b 622 315 567 150 622 204 l 622 944 l 814 944 l 814 319 b 454 -17 814 83 690 -17 b 94 319 218 -17 94 83 l 94 944 l 286 944 l 286 315 m 650 1165 l 604 1036 l 243 1146 l 300 1313 "},"Ű":{"ha":908,"x_min":0,"x_max":0,"o":"m 286 315 b 454 150 286 203 342 150 b 622 315 567 150 622 204 l 622 944 l 814 944 l 814 319 b 454 -17 814 83 690 -17 b 94 319 218 -17 94 83 l 94 944 l 286 944 l 286 315 m 594 1350 l 756 1292 l 647 1026 l 501 1076 m 306 1351 l 467 1293 l 358 1028 l 213 1078 "},"Ū":{"ha":908,"x_min":0,"x_max":0,"o":"m 286 315 b 454 150 286 203 342 150 b 622 315 567 150 622 204 l 622 944 l 814 944 l 814 319 b 454 -17 814 83 690 -17 b 94 319 218 -17 94 83 l 94 944 l 286 944 l 286 315 m 218 1222 l 700 1222 l 700 1086 l 218 1086 "},"Ų":{"ha":911,"x_min":0,"x_max":0,"o":"m 288 315 b 456 150 288 203 343 150 b 624 315 568 150 624 204 l 624 944 l 815 944 l 815 319 b 583 -4 815 131 736 29 b 510 -112 565 -19 510 -71 b 554 -158 510 -143 529 -158 b 613 -153 564 -158 613 -153 l 629 -285 b 488 -300 629 -285 547 -300 b 336 -167 401 -300 336 -250 b 410 -15 336 -99 376 -46 b 96 319 203 -3 96 99 l 96 944 l 288 944 l 288 315 "},"Ů":{"ha":908,"x_min":0,"x_max":0,"o":"m 286 315 b 454 150 286 203 342 150 b 622 315 567 150 622 204 l 622 944 l 814 944 l 814 319 b 454 -17 814 83 690 -17 b 94 319 218 -17 94 83 l 94 944 l 286 944 l 286 315 m 668 1165 b 460 990 668 1053 572 990 b 251 1165 346 990 251 1053 b 460 1340 251 1278 346 1340 b 668 1165 572 1340 668 1278 m 378 1165 b 460 1108 378 1131 410 1108 b 542 1165 510 1108 542 1131 b 460 1222 542 1200 510 1222 b 378 1165 410 1222 378 1200 "},"Ũ":{"ha":908,"x_min":0,"x_max":0,"o":"m 286 315 b 454 150 286 203 342 150 b 622 315 567 150 622 204 l 622 944 l 814 944 l 814 319 b 454 -17 814 83 690 -17 b 94 319 218 -17 94 83 l 94 944 l 286 944 l 286 315 m 713 1140 b 564 1053 713 1140 639 1053 b 329 1117 492 1053 375 1117 b 218 1058 290 1117 218 1058 l 178 1192 b 326 1281 178 1192 253 1281 b 558 1217 411 1281 519 1217 b 672 1275 594 1217 672 1275 "},"V":{"ha":838,"x_min":0,"x_max":0,"o":"m 815 944 l 596 0 l 242 0 l 22 944 l 224 944 l 388 167 l 450 167 l 614 944 "},"W":{"ha":1292,"x_min":0,"x_max":0,"o":"m 228 944 l 344 164 l 365 164 l 535 944 l 757 944 l 926 164 l 947 164 l 1064 944 l 1265 944 l 1085 0 l 794 0 l 646 718 l 497 0 l 207 0 l 26 944 "},"Ẃ":{"ha":1292,"x_min":0,"x_max":0,"o":"m 228 944 l 344 164 l 365 164 l 535 944 l 757 944 l 926 164 l 947 164 l 1064 944 l 1265 944 l 1085 0 l 794 0 l 646 718 l 497 0 l 207 0 l 26 944 m 807 1313 l 864 1146 l 503 1036 l 457 1165 "},"Ŵ":{"ha":1292,"x_min":0,"x_max":0,"o":"m 228 944 l 344 164 l 365 164 l 535 944 l 757 944 l 926 164 l 947 164 l 1064 944 l 1265 944 l 1085 0 l 794 0 l 646 718 l 497 0 l 207 0 l 26 944 m 565 1269 l 728 1269 l 914 1063 l 717 1063 l 649 1140 l 576 1063 l 379 1063 "},"Ẅ":{"ha":1292,"x_min":0,"x_max":0,"o":"m 228 944 l 344 164 l 365 164 l 535 944 l 757 944 l 926 164 l 947 164 l 1064 944 l 1265 944 l 1085 0 l 794 0 l 646 718 l 497 0 l 207 0 l 26 944 m 406 1244 l 583 1244 l 583 1061 l 406 1061 m 703 1244 l 881 1244 l 881 1061 l 703 1061 "},"Ẁ":{"ha":1292,"x_min":0,"x_max":0,"o":"m 228 944 l 344 164 l 365 164 l 535 944 l 757 944 l 926 164 l 947 164 l 1064 944 l 1265 944 l 1085 0 l 794 0 l 646 718 l 497 0 l 207 0 l 26 944 m 861 1165 l 815 1036 l 454 1146 l 511 1313 "},"X":{"ha":790,"x_min":0,"x_max":0,"o":"m 400 597 l 579 944 l 778 944 l 506 463 l 778 0 l 565 0 l 390 326 l 211 0 l 13 0 l 285 453 l 13 944 l 225 944 "},"Y":{"ha":774,"x_min":0,"x_max":0,"o":"m 483 0 l 292 0 l 292 382 l 0 944 l 213 944 l 386 568 l 560 944 l 772 944 l 483 382 "},"Ý":{"ha":774,"x_min":0,"x_max":0,"o":"m 483 0 l 292 0 l 292 382 l 0 944 l 213 944 l 386 568 l 560 944 l 772 944 l 483 382 m 535 1313 l 592 1146 l 231 1036 l 185 1165 "},"Ŷ":{"ha":774,"x_min":0,"x_max":0,"o":"m 483 0 l 292 0 l 292 382 l 0 944 l 213 944 l 386 568 l 560 944 l 772 944 l 483 382 m 308 1269 l 471 1269 l 657 1063 l 460 1063 l 392 1140 l 319 1063 l 122 1063 "},"Ÿ":{"ha":774,"x_min":0,"x_max":0,"o":"m 483 0 l 292 0 l 292 382 l 0 944 l 213 944 l 386 568 l 560 944 l 772 944 l 483 382 m 146 1244 l 324 1244 l 324 1061 l 146 1061 m 443 1244 l 621 1244 l 621 1061 l 443 1061 "},"Ỳ":{"ha":774,"x_min":0,"x_max":0,"o":"m 483 0 l 292 0 l 292 382 l 0 944 l 213 944 l 386 568 l 560 944 l 772 944 l 483 382 m 603 1165 l 557 1036 l 196 1146 l 253 1313 "},"Z":{"ha":739,"x_min":0,"x_max":0,"o":"m 57 944 l 682 944 l 682 778 l 288 192 l 288 167 l 682 167 l 682 0 l 57 0 l 57 165 l 451 753 l 451 778 l 57 778 "},"Ź":{"ha":739,"x_min":0,"x_max":0,"o":"m 57 944 l 682 944 l 682 778 l 288 192 l 288 167 l 682 167 l 682 0 l 57 0 l 57 165 l 451 753 l 451 778 l 57 778 m 518 1313 l 575 1146 l 214 1036 l 168 1165 "},"Ž":{"ha":739,"x_min":0,"x_max":0,"o":"m 57 944 l 682 944 l 682 778 l 288 192 l 288 167 l 682 167 l 682 0 l 57 0 l 57 165 l 451 753 l 451 778 l 57 778 m 106 1269 l 303 1269 l 375 1192 l 443 1269 l 640 1269 l 454 1063 l 292 1063 "},"Ż":{"ha":739,"x_min":0,"x_max":0,"o":"m 57 944 l 682 944 l 682 778 l 288 192 l 288 167 l 682 167 l 682 0 l 57 0 l 57 165 l 451 753 l 451 778 l 57 778 m 276 1253 l 463 1253 l 463 1065 l 276 1065 "},"g":{"ha":742,"x_min":0,"x_max":0,"o":"m 386 -319 b 51 -126 183 -319 51 -282 b 151 39 51 -62 82 -15 b 100 144 121 60 100 101 b 154 256 100 179 154 256 b 60 463 106 290 60 342 b 351 708 60 642 189 708 b 492 690 413 708 492 690 l 715 697 l 715 549 l 611 557 b 642 463 624 538 642 503 b 349 218 642 268 539 218 b 292 224 333 218 304 221 b 278 169 292 224 278 188 b 413 124 278 133 294 125 b 715 -86 649 122 715 69 b 386 -319 715 -256 565 -319 m 397 -37 b 272 -28 358 -37 272 -28 b 235 -107 249 -51 235 -72 b 388 -167 235 -147 283 -167 b 528 -97 478 -167 528 -147 b 397 -37 528 -44 500 -39 m 353 360 b 458 463 428 360 458 397 b 353 564 458 528 428 564 b 246 463 278 564 246 528 b 353 360 246 397 278 360 "},"h":{"ha":768,"x_min":0,"x_max":0,"o":"m 86 0 l 86 972 l 272 972 l 272 661 b 444 711 272 661 368 711 b 689 376 639 711 689 589 l 689 0 l 503 0 l 503 372 b 399 544 503 476 489 544 b 272 522 338 544 272 522 l 272 0 "},"s":{"ha":656,"x_min":0,"x_max":0,"o":"m 585 521 b 332 543 585 521 413 543 b 235 488 251 543 235 525 b 389 425 235 456 261 449 b 607 208 550 396 607 349 b 328 -17 607 46 501 -17 b 61 17 225 -17 61 17 l 67 172 b 310 150 67 172 239 150 b 422 204 399 150 422 168 b 279 269 422 235 407 249 b 50 483 129 294 50 331 b 318 710 50 644 172 710 b 588 675 418 710 588 675 "},"–":{"ha":853,"x_min":0,"x_max":0,"o":"m 774 449 l 774 290 l 79 290 l 79 449 "},"$":{"ha":778,"x_min":0,"x_max":0,"o":"m 672 750 b 485 767 672 750 571 761 l 457 543 b 706 276 647 482 706 426 b 389 -17 706 76 569 -17 l 388 -17 l 367 -181 b 264 -171 367 -181 264 -176 l 283 -10 b 83 25 182 1 83 25 l 101 169 b 304 149 101 169 211 154 l 335 390 b 72 661 144 447 72 519 b 385 933 72 851 199 933 l 403 933 l 428 1125 l 531 1125 l 506 925 b 688 897 600 915 688 897 m 257 674 b 358 576 257 629 278 607 l 382 769 b 257 674 297 765 257 729 m 521 264 b 435 360 521 307 501 333 l 408 147 b 521 264 486 156 521 200 "},"!":{"ha":389,"x_min":0,"x_max":0,"o":"m 94 224 l 294 224 l 294 0 l 94 0 m 94 944 l 296 944 l 276 347 l 113 347 "},"∑":{"ha":778,"x_min":0,"x_max":0,"o":"m 42 861 l 42 1056 l 736 1056 l 736 889 l 244 889 l 244 868 l 543 478 l 543 349 l 244 -62 l 244 -83 l 736 -83 l 736 -250 l 42 -250 l 42 -57 l 372 414 "},"a":{"ha":710,"x_min":0,"x_max":0,"o":"m 618 189 b 664 124 621 147 626 131 l 658 -17 b 460 32 565 -17 518 -7 b 256 -17 460 32 360 -17 b 40 211 110 -17 40 64 b 283 424 40 368 131 413 l 432 435 l 432 478 b 350 553 432 538 406 553 b 89 542 258 553 89 542 l 83 671 b 365 711 83 671 232 711 b 618 478 546 711 618 640 m 306 294 b 228 217 257 290 228 267 b 296 135 228 168 246 135 b 432 157 356 135 432 157 l 432 306 "},"o":{"ha":739,"x_min":0,"x_max":0,"o":"m 369 711 b 689 349 611 711 689 563 b 369 -17 689 135 611 -17 b 50 349 128 -17 50 135 b 369 711 50 563 128 711 m 369 142 b 500 349 472 142 500 214 b 369 553 500 483 472 553 b 239 349 267 553 239 483 b 369 142 239 214 267 142 "},"n":{"ha":768,"x_min":0,"x_max":0,"o":"m 86 0 l 86 694 l 271 694 l 271 656 b 444 711 271 656 365 711 b 689 376 639 711 689 589 l 689 0 l 503 0 l 503 371 b 399 544 503 476 489 544 b 272 519 333 544 272 519 l 272 0 "},"#":{"ha":778,"x_min":0,"x_max":0,"o":"m 622 207 l 622 0 l 461 0 l 461 207 l 317 207 l 317 0 l 156 0 l 156 207 l 22 207 l 22 363 l 156 363 l 156 538 l 22 538 l 22 693 l 156 693 l 156 917 l 317 917 l 317 693 l 461 693 l 461 917 l 622 917 l 622 693 l 756 693 l 756 538 l 622 538 l 622 363 l 756 363 l 756 207 m 461 538 l 317 538 l 317 363 l 461 363 "},"@":{"ha":1351,"x_min":0,"x_max":0,"o":"m 1311 413 b 1043 0 1311 122 1217 0 b 858 78 899 0 858 78 b 653 0 858 78 747 0 b 393 349 483 0 393 94 b 658 694 393 574 458 694 b 785 660 710 694 785 660 l 785 678 l 971 678 l 971 429 b 1040 156 971 176 978 156 b 1125 413 1096 156 1125 206 l 1125 425 b 699 849 1125 722 993 849 b 239 363 397 849 239 667 b 699 -126 239 26 363 -126 b 897 -114 768 -126 897 -114 l 904 -276 b 699 -290 904 -276 779 -290 b 53 363 288 -290 53 -139 b 699 1013 53 804 315 1013 b 1311 424 1108 1013 1311 804 m 668 164 b 793 199 710 164 761 183 b 785 346 786 240 785 293 l 785 517 b 700 531 785 517 726 531 b 582 349 600 531 582 476 b 668 164 582 225 608 164 "},"ÿ":{"ha":694,"x_min":0,"x_max":0,"o":"m 206 694 l 332 158 l 364 158 l 490 694 l 674 694 l 429 -292 l 247 -292 l 324 0 l 193 0 l 22 694 m 110 1011 l 288 1011 l 288 828 l 110 828 m 410 1011 l 588 1011 l 588 828 l 410 828 "},"š":{"ha":656,"x_min":0,"x_max":0,"o":"m 585 521 b 332 543 585 521 413 543 b 235 488 251 543 235 525 b 389 425 235 456 261 449 b 607 208 550 396 607 349 b 328 -17 607 46 501 -17 b 61 17 225 -17 61 17 l 67 172 b 310 150 67 172 239 150 b 422 204 399 150 422 168 b 279 269 422 235 407 249 b 50 483 129 294 50 331 b 318 710 50 644 172 710 b 588 675 418 710 588 675 m 107 1015 l 278 1015 l 342 922 l 406 1015 l 576 1015 l 399 806 l 282 806 "},"ý":{"ha":694,"x_min":0,"x_max":0,"o":"m 206 694 l 332 158 l 364 158 l 490 694 l 674 694 l 429 -292 l 247 -292 l 324 0 l 193 0 l 22 694 m 519 1046 l 575 886 l 211 783 l 169 904 "},"ž":{"ha":631,"x_min":0,"x_max":0,"o":"m 57 694 l 572 694 l 572 528 l 281 167 l 572 167 l 572 0 l 57 0 l 57 167 l 349 528 l 57 528 m 94 1015 l 265 1015 l 329 922 l 393 1015 l 564 1015 l 386 806 l 269 806 "},"°":{"ha":778,"x_min":0,"x_max":0,"o":"m 181 753 b 389 961 181 876 265 961 b 597 753 513 961 597 876 b 389 546 597 629 513 546 b 181 753 265 546 181 629 m 285 753 b 389 647 285 690 326 647 b 496 753 451 647 496 690 b 389 860 496 815 451 860 b 285 753 326 860 285 815 "},"§":{"ha":718,"x_min":0,"x_max":0,"o":"m 617 703 b 393 725 617 703 460 725 b 260 635 283 725 260 701 b 449 544 260 592 313 578 b 660 335 608 506 660 471 b 590 142 660 272 629 197 b 643 -10 624 111 643 82 b 342 -264 643 -190 551 -264 b 83 -232 244 -264 83 -232 l 101 -82 b 328 -103 101 -82 251 -103 b 465 -24 422 -103 465 -81 b 268 79 465 31 421 40 b 51 296 114 118 51 160 b 140 482 51 363 97 447 b 79 632 100 511 79 550 b 381 886 79 807 186 886 b 625 853 479 886 625 853 m 358 396 b 263 419 326 404 289 411 b 239 331 251 403 239 360 b 322 246 239 275 256 264 b 446 207 372 232 414 218 b 471 308 460 225 471 275 b 358 396 471 354 450 372 "},"©":{"ha":893,"x_min":0,"x_max":0,"o":"m 64 603 b 447 997 64 831 225 997 b 829 603 681 997 829 817 b 444 208 829 379 681 208 b 64 603 226 208 64 381 m 150 603 b 444 292 150 433 275 292 b 743 603 618 292 743 432 b 446 914 743 772 615 914 b 150 603 276 914 150 772 m 575 399 b 458 374 575 399 536 374 b 281 610 336 374 281 421 b 464 831 281 779 336 831 b 575 810 531 831 575 810 l 565 690 b 472 699 565 690 517 699 b 424 610 436 699 424 678 b 472 506 424 536 438 506 b 565 513 517 506 565 513 "},"™":{"ha":917,"x_min":0,"x_max":0,"o":"m 111 894 l 389 894 l 389 785 l 332 785 l 332 461 l 210 461 l 210 785 l 111 785 m 424 894 l 567 894 l 624 675 l 686 894 l 828 894 l 828 460 l 714 460 l 714 701 l 667 489 l 590 489 l 538 701 l 538 460 l 424 460 "},"®":{"ha":893,"x_min":0,"x_max":0,"o":"m 64 603 b 446 997 64 831 225 997 b 829 603 681 997 829 817 b 446 208 829 379 681 208 b 64 603 226 208 64 381 m 150 603 b 446 292 150 433 281 292 b 743 603 618 292 743 432 b 446 914 743 772 615 914 b 150 603 278 914 150 772 m 453 513 l 413 513 l 413 383 l 279 383 l 279 821 l 468 821 b 626 675 558 821 626 781 b 574 536 626 603 614 569 l 631 383 l 492 383 m 411 611 l 450 611 b 497 665 481 611 497 633 b 449 721 497 699 482 721 l 411 721 "},"á":{"ha":710,"x_min":0,"x_max":0,"o":"m 618 189 b 664 124 621 147 626 131 l 658 -17 b 460 32 565 -17 518 -7 b 256 -17 460 32 360 -17 b 40 211 110 -17 40 64 b 283 424 40 368 131 413 l 432 435 l 432 478 b 350 553 432 538 406 553 b 89 542 258 553 89 542 l 83 671 b 365 711 83 671 232 711 b 618 478 546 711 618 640 m 306 294 b 228 217 257 290 228 267 b 296 135 228 168 246 135 b 432 157 356 135 432 157 l 432 306 m 483 1046 l 539 886 l 175 783 l 133 904 "},"à":{"ha":710,"x_min":0,"x_max":0,"o":"m 618 189 b 664 124 621 147 626 131 l 658 -17 b 460 32 565 -17 518 -7 b 256 -17 460 32 360 -17 b 40 211 110 -17 40 64 b 283 424 40 368 131 413 l 432 435 l 432 478 b 350 553 432 538 406 553 b 89 542 258 553 89 542 l 83 671 b 365 711 83 671 232 711 b 618 478 546 711 618 640 m 306 294 b 228 217 257 290 228 267 b 296 135 228 168 246 135 b 432 157 356 135 432 157 l 432 306 m 549 904 l 507 783 l 143 886 l 199 1046 "},"â":{"ha":710,"x_min":0,"x_max":0,"o":"m 618 189 b 664 124 621 147 626 131 l 658 -17 b 460 32 565 -17 518 -7 b 256 -17 460 32 360 -17 b 40 211 110 -17 40 64 b 283 424 40 368 131 413 l 432 435 l 432 478 b 350 553 432 538 406 553 b 89 542 258 553 89 542 l 83 671 b 365 711 83 671 232 711 b 618 478 546 711 618 640 m 306 294 b 228 217 257 290 228 267 b 296 135 228 168 246 135 b 432 157 356 135 432 157 l 432 306 m 290 1015 l 407 1015 l 585 806 l 414 806 l 350 899 l 286 806 l 115 806 "},"ä":{"ha":710,"x_min":0,"x_max":0,"o":"m 618 189 b 664 124 621 147 626 131 l 658 -17 b 460 32 565 -17 518 -7 b 256 -17 460 32 360 -17 b 40 211 110 -17 40 64 b 283 424 40 368 131 413 l 432 435 l 432 478 b 350 553 432 538 406 553 b 89 542 258 553 89 542 l 83 671 b 365 711 83 671 232 711 b 618 478 546 711 618 640 m 306 294 b 228 217 257 290 228 267 b 296 135 228 168 246 135 b 432 157 356 135 432 157 l 432 306 m 90 1011 l 268 1011 l 268 828 l 90 828 m 390 1011 l 568 1011 l 568 828 l 390 828 "},"ã":{"ha":710,"x_min":0,"x_max":0,"o":"m 618 189 b 664 124 621 147 626 131 l 658 -17 b 460 32 565 -17 518 -7 b 256 -17 460 32 360 -17 b 40 211 110 -17 40 64 b 283 424 40 368 131 413 l 432 435 l 432 478 b 350 553 432 538 406 553 b 89 542 258 553 89 542 l 83 671 b 365 711 83 671 232 711 b 618 478 546 711 618 640 m 306 294 b 228 217 257 290 228 267 b 296 135 228 168 246 135 b 432 157 356 135 432 157 l 432 306 m 547 899 b 401 813 547 899 474 813 b 222 863 343 813 268 863 b 115 819 183 863 115 819 l 75 924 b 219 1007 75 924 147 1007 b 396 957 276 1007 357 957 b 507 1004 432 957 507 1004 "},"å":{"ha":710,"x_min":0,"x_max":0,"o":"m 618 189 b 664 124 621 147 626 131 l 658 -17 b 460 32 565 -17 518 -7 b 256 -17 460 32 360 -17 b 40 211 110 -17 40 64 b 283 424 40 368 131 413 l 432 435 l 432 478 b 350 553 432 538 406 553 b 89 542 258 553 89 542 l 83 671 b 365 711 83 671 232 711 b 618 478 546 711 618 640 m 306 294 b 228 217 257 290 228 267 b 296 135 228 168 246 135 b 432 157 356 135 432 157 l 432 306 m 206 886 b 368 1049 206 976 275 1049 b 531 886 458 1049 531 976 b 368 724 531 793 458 724 b 206 886 275 724 206 793 m 306 886 b 369 822 306 849 332 822 b 432 886 406 822 432 849 b 369 949 432 922 406 949 b 306 886 332 949 306 922 "},"é":{"ha":708,"x_min":0,"x_max":0,"o":"m 379 147 b 636 160 493 147 636 160 l 639 22 b 350 -17 639 22 479 -17 b 51 338 140 -17 51 88 b 358 711 51 585 156 711 b 661 397 563 711 661 607 l 647 268 l 239 268 b 379 147 240 185 279 147 m 478 410 b 358 558 478 522 446 558 b 238 410 269 558 239 515 m 496 1046 l 551 886 l 188 783 l 146 904 "},"è":{"ha":708,"x_min":0,"x_max":0,"o":"m 379 147 b 636 160 493 147 636 160 l 639 22 b 350 -17 639 22 479 -17 b 51 338 140 -17 51 88 b 358 711 51 585 156 711 b 661 397 563 711 661 607 l 647 268 l 239 268 b 379 147 240 185 279 147 m 478 410 b 358 558 478 522 446 558 b 238 410 269 558 239 515 m 558 904 l 517 783 l 153 886 l 208 1046 "},"ê":{"ha":708,"x_min":0,"x_max":0,"o":"m 379 147 b 636 160 493 147 636 160 l 639 22 b 350 -17 639 22 479 -17 b 51 338 140 -17 51 88 b 358 711 51 585 156 711 b 661 397 563 711 661 607 l 647 268 l 239 268 b 379 147 240 185 279 147 m 478 410 b 358 558 478 522 446 558 b 238 410 269 558 239 515 m 299 1015 l 415 1015 l 593 806 l 422 806 l 358 899 l 294 806 l 124 806 "},"ë":{"ha":708,"x_min":0,"x_max":0,"o":"m 379 147 b 636 160 493 147 636 160 l 639 22 b 350 -17 639 22 479 -17 b 51 338 140 -17 51 88 b 358 711 51 585 156 711 b 661 397 563 711 661 607 l 647 268 l 239 268 b 379 147 240 185 279 147 m 478 410 b 358 558 478 522 446 558 b 238 410 269 558 239 515 m 117 1011 l 294 1011 l 294 828 l 117 828 m 417 1011 l 594 1011 l 594 828 l 417 828 "},"ï":{"ha":358,"x_min":0,"x_max":0,"o":"m 86 0 l 272 0 l 272 694 l 86 694 m -67 1011 l 111 1011 l 111 828 l -67 828 m 233 1011 l 411 1011 l 411 828 l 233 828 "},"ñ":{"ha":768,"x_min":0,"x_max":0,"o":"m 272 0 l 272 519 b 399 544 272 519 333 544 b 503 371 489 544 503 476 l 503 0 l 689 0 l 689 376 b 444 711 689 589 639 711 b 271 656 365 711 271 656 l 271 694 l 86 694 l 86 0 m 626 899 b 481 813 626 899 553 813 b 301 863 422 813 347 863 b 194 819 263 863 194 819 l 154 924 b 299 1007 154 924 226 1007 b 475 957 356 1007 436 957 b 586 1004 511 957 586 1004 "},"ó":{"ha":739,"x_min":0,"x_max":0,"o":"m 369 711 b 50 349 128 711 50 563 b 369 -17 50 135 128 -17 b 689 349 611 -17 689 135 b 369 711 689 563 611 711 m 369 142 b 239 349 267 142 239 214 b 369 553 239 483 267 553 b 500 349 472 553 500 483 b 369 142 500 214 472 142 m 511 1046 l 567 886 l 203 783 l 161 904 "},"ò":{"ha":739,"x_min":0,"x_max":0,"o":"m 369 711 b 689 349 611 711 689 563 b 369 -17 689 135 611 -17 b 50 349 128 -17 50 135 b 369 711 50 563 128 711 m 369 142 b 500 349 472 142 500 214 b 369 553 500 483 472 553 b 239 349 267 553 239 483 b 369 142 239 214 267 142 m 576 904 l 535 783 l 171 886 l 226 1046 "},"ô":{"ha":739,"x_min":0,"x_max":0,"o":"m 369 711 b 50 349 128 711 50 563 b 369 -17 50 135 128 -17 b 689 349 611 -17 689 135 b 369 711 689 563 611 711 m 369 142 b 239 349 267 142 239 214 b 369 553 239 483 267 553 b 500 349 472 553 500 483 b 369 142 500 214 472 142 m 301 1015 l 418 1015 l 596 806 l 425 806 l 361 899 l 297 806 l 126 806 "},"ö":{"ha":739,"x_min":0,"x_max":0,"o":"m 369 711 b 50 349 128 711 50 563 b 369 -17 50 135 128 -17 b 689 349 611 -17 689 135 b 369 711 689 563 611 711 m 369 142 b 239 349 267 142 239 214 b 369 553 239 483 267 553 b 500 349 472 553 500 483 b 369 142 500 214 472 142 m 129 1011 l 307 1011 l 307 828 l 129 828 m 429 1011 l 607 1011 l 607 828 l 429 828 "},"õ":{"ha":739,"x_min":0,"x_max":0,"o":"m 369 711 b 50 349 128 711 50 563 b 369 -17 50 135 128 -17 b 689 349 611 -17 689 135 b 369 711 689 563 611 711 m 369 142 b 239 349 267 142 239 214 b 369 553 239 483 267 553 b 500 349 472 553 500 483 b 369 142 500 214 472 142 m 599 899 b 453 813 599 899 525 813 b 274 863 394 813 319 863 b 167 819 235 863 167 819 l 126 924 b 271 1007 126 924 199 1007 b 447 957 328 1007 408 957 b 558 1004 483 957 558 1004 "},"ú":{"ha":768,"x_min":0,"x_max":0,"o":"m 496 694 l 496 175 b 363 150 496 175 432 150 b 265 328 271 150 265 204 l 265 694 l 79 694 l 79 331 b 324 -17 79 96 121 -17 b 497 39 397 -17 497 39 l 497 0 l 682 0 l 682 694 m 531 1046 l 586 886 l 222 783 l 181 904 "},"ù":{"ha":768,"x_min":0,"x_max":0,"o":"m 682 694 l 682 0 l 497 0 l 497 39 b 324 -17 497 39 397 -17 b 79 331 121 -17 79 96 l 79 694 l 265 694 l 265 328 b 363 150 265 204 271 150 b 496 175 432 150 496 175 l 496 694 m 542 904 l 500 783 l 136 886 l 192 1046 "},"û":{"ha":768,"x_min":0,"x_max":0,"o":"m 496 694 l 496 175 b 363 150 496 175 432 150 b 265 328 271 150 265 204 l 265 694 l 79 694 l 79 331 b 324 -17 79 96 121 -17 b 497 39 397 -17 497 39 l 497 0 l 682 0 l 682 694 m 289 1015 l 406 1015 l 583 806 l 413 806 l 349 899 l 285 806 l 114 806 "},"ü":{"ha":768,"x_min":0,"x_max":0,"o":"m 496 694 l 496 175 b 363 150 496 175 432 150 b 265 328 271 150 265 204 l 265 694 l 79 694 l 79 331 b 324 -17 79 96 121 -17 b 497 39 397 -17 497 39 l 497 0 l 682 0 l 682 694 m 147 1011 l 325 1011 l 325 828 l 147 828 m 447 1011 l 625 1011 l 625 828 l 447 828 "},"−":{"ha":778,"x_min":0,"x_max":0,"o":"m 86 432 l 692 432 l 692 265 l 86 265 "},"×":{"ha":778,"x_min":0,"x_max":0,"o":"m 389 461 l 583 660 l 700 542 l 501 347 l 700 154 l 582 36 l 389 233 l 196 38 l 78 154 l 275 347 l 79 539 l 197 657 "},"ı":{"ha":358,"x_min":0,"x_max":0,"o":"m 86 694 l 272 694 l 272 0 l 86 0 "},"í":{"ha":358,"x_min":0,"x_max":0,"o":"m 393 1046 l 449 886 l 85 783 l 43 904 m 86 0 l 272 0 l 272 694 l 86 694 "},"ì":{"ha":358,"x_min":0,"x_max":0,"o":"m 86 694 l 272 694 l 272 0 l 86 0 m 324 904 l 282 783 l -82 886 l -26 1046 "},"î":{"ha":358,"x_min":0,"x_max":0,"o":"m 86 0 l 272 0 l 272 694 l 86 694 m 113 1015 l 229 1015 l 407 806 l 236 806 l 172 899 l 108 806 l -62 806 "},"ß":{"ha":849,"x_min":0,"x_max":0,"o":"m 86 0 l 86 725 b 407 989 86 915 179 989 b 726 771 615 989 726 929 b 596 594 726 664 681 632 b 514 529 526 564 514 553 b 644 436 514 503 526 490 b 817 228 767 379 817 340 b 536 -17 817 38 738 -17 b 322 15 444 -17 322 15 l 328 164 b 514 147 328 164 463 147 b 625 200 604 147 625 171 b 499 301 625 242 613 253 b 322 511 368 357 322 411 b 429 679 322 601 354 649 b 535 757 518 715 535 729 b 407 825 535 806 504 825 b 272 721 301 825 272 793 l 272 0 "},"ç":{"ha":619,"x_min":0,"x_max":0,"o":"m 525 -176 b 371 -335 525 -285 465 -335 b 242 -319 311 -335 242 -319 l 247 -211 b 314 -212 247 -211 290 -212 b 367 -176 351 -212 367 -200 b 314 -146 367 -153 351 -146 l 281 -146 l 281 -12 b 53 354 118 8 53 121 b 346 711 53 600 139 711 b 568 681 426 711 568 681 l 563 533 b 400 544 563 533 453 544 b 242 354 267 544 242 493 b 401 150 242 199 268 150 b 563 161 454 150 563 161 l 568 13 b 354 -17 568 13 433 -14 l 354 -51 b 525 -176 463 -53 525 -72 "},"ł":{"ha":529,"x_min":0,"x_max":0,"o":"m 165 303 l 94 254 l 4 379 l 165 492 l 165 972 l 351 972 l 351 622 l 439 683 l 529 558 l 351 433 l 351 0 l 165 0 "},"ð":{"ha":788,"x_min":0,"x_max":0,"o":"m 158 754 l 264 825 b 114 858 221 836 171 847 l 139 989 b 429 935 250 981 347 963 l 563 1024 l 638 918 l 563 868 b 733 482 674 789 733 665 b 379 -12 733 147 632 -12 b 53 300 167 -12 53 89 b 356 608 53 486 149 608 b 536 575 451 608 536 575 b 413 768 528 657 499 719 l 233 649 m 367 444 b 250 300 285 444 250 372 b 379 154 250 211 286 154 b 536 414 479 154 536 225 b 367 444 536 414 467 444 "},"Þ":{"ha":828,"x_min":0,"x_max":0,"o":"m 449 324 b 594 490 544 324 594 386 b 449 639 594 593 544 639 l 294 639 l 294 324 l 449 324 m 294 138 l 294 0 l 103 0 l 103 958 l 294 958 l 294 822 l 450 822 b 789 490 672 822 789 713 b 450 138 789 268 672 138 "},"ø":{"ha":739,"x_min":0,"x_max":0,"o":"m 369 711 b 447 704 397 711 424 708 l 503 843 l 615 801 l 558 665 b 689 349 654 606 689 492 b 369 -17 689 135 611 -17 b 282 -8 338 -17 308 -14 l 225 -150 l 114 -108 l 174 35 b 50 349 83 96 50 208 b 369 711 50 563 128 711 m 369 142 b 500 349 472 142 500 214 b 481 486 500 407 494 453 l 342 143 b 369 142 350 142 360 142 m 369 553 b 239 349 267 553 239 483 b 256 217 239 294 243 250 l 388 551 b 369 553 382 551 375 553 "},"¦":{"ha":378,"x_min":0,"x_max":0,"o":"m 282 972 l 282 456 l 96 456 l 96 972 m 282 236 l 282 -292 l 96 -292 l 96 236 "},"±":{"ha":778,"x_min":0,"x_max":0,"o":"m 69 542 l 304 542 l 304 692 l 471 692 l 471 542 l 708 542 l 708 375 l 471 375 l 471 236 l 304 236 l 304 375 l 69 375 m 708 193 l 708 26 l 69 26 l 69 193 "},"π":{"ha":778,"x_min":0,"x_max":0,"o":"m 444 536 l 326 536 l 290 0 l 103 0 l 147 536 b 25 518 104 536 25 518 l 25 669 b 233 694 25 669 114 694 l 582 694 b 733 711 661 694 733 711 l 733 558 b 631 539 733 558 700 543 l 631 214 b 726 144 631 168 646 144 l 726 -14 b 444 214 475 -14 444 28 "},"•":{"ha":625,"x_min":0,"x_max":0,"o":"m 139 528 l 486 528 l 486 139 l 139 139 "},"ª":{"ha":578,"x_min":0,"x_max":0,"o":"m 488 560 b 513 549 493 556 506 550 l 510 435 b 333 481 372 435 353 451 b 210 436 333 481 275 436 b 58 589 110 436 58 496 b 235 729 58 681 117 724 l 328 733 l 328 764 b 267 785 328 778 307 785 b 85 775 206 785 85 775 l 81 879 b 276 915 81 879 178 915 b 488 756 407 915 488 886 m 263 632 b 218 594 233 629 218 619 b 261 558 218 568 232 558 b 328 581 289 558 328 581 l 328 636 "},"º":{"ha":583,"x_min":0,"x_max":0,"o":"m 293 915 b 528 679 447 915 528 843 b 293 436 528 514 447 436 b 56 679 138 436 56 514 b 293 915 56 843 138 915 m 293 582 b 360 678 349 582 360 614 b 293 771 360 742 349 771 b 222 678 238 771 222 742 b 293 582 222 614 238 582 "},"“":{"ha":615,"x_min":0,"x_max":0,"o":"m 499 600 l 304 600 l 422 943 l 565 943 m 243 600 l 49 600 l 167 943 l 310 943 "},"~":{"ha":778,"x_min":0,"x_max":0,"o":"m 690 307 b 533 236 690 307 617 236 b 250 297 458 236 303 297 b 99 243 183 297 99 243 l 85 392 b 256 464 85 392 172 464 b 538 403 331 464 471 403 b 679 456 592 403 679 456 "},"—":{"ha":1547,"x_min":0,"x_max":0,"o":"m 1468 449 l 1468 290 l 79 290 l 79 449 "},"¥":{"ha":778,"x_min":0,"x_max":0,"o":"m 81 560 l 208 560 l 7 917 l 219 917 l 390 624 l 560 917 l 772 917 l 574 560 l 697 560 l 697 404 l 488 404 l 488 342 l 697 342 l 697 186 l 488 186 l 488 0 l 296 0 l 296 186 l 81 186 l 81 342 l 296 342 l 296 404 l 81 404 "},"<":{"ha":778,"x_min":0,"x_max":0,"o":"m 293 353 l 656 203 l 656 14 l 92 272 l 92 425 l 656 679 l 656 490 "},">":{"ha":778,"x_min":0,"x_max":0,"o":"m 122 490 l 122 679 l 686 425 l 686 272 l 122 14 l 122 203 l 485 353 "},"[":{"ha":493,"x_min":0,"x_max":0,"o":"m 444 874 l 285 874 l 285 -4 l 444 -4 l 444 -171 l 94 -171 l 94 1040 l 444 1040 "},"\\":{"ha":692,"x_min":0,"x_max":0,"o":"m 486 -50 l 44 922 l 203 994 l 647 18 "},"]":{"ha":493,"x_min":0,"x_max":0,"o":"m 49 1040 l 399 1040 l 399 -171 l 49 -171 l 49 -4 l 208 -4 l 208 874 l 49 874 "},"|":{"ha":372,"x_min":0,"x_max":0,"o":"m 93 972 l 279 972 l 279 -292 l 93 -292 "},"≠":{"ha":778,"x_min":0,"x_max":0,"o":"m 79 578 l 396 578 l 490 792 l 635 735 l 565 578 l 696 578 l 696 410 l 492 410 l 439 289 l 696 289 l 696 121 l 365 121 l 278 -78 l 133 -21 l 196 121 l 79 121 l 79 289 l 269 289 l 322 410 l 79 410 "},"µ":{"ha":778,"x_min":0,"x_max":0,"o":"m 690 694 l 690 0 l 506 0 l 506 39 b 332 -17 506 39 406 -17 b 274 -12 311 -17 292 -15 l 274 -292 l 88 -292 l 88 694 l 274 694 l 274 293 b 371 150 275 194 288 150 b 504 175 440 150 504 175 l 504 694 "},"æ":{"ha":1089,"x_min":0,"x_max":0,"o":"m 758 154 b 1015 167 872 154 1015 167 l 1018 22 b 729 -17 1018 22 858 -17 b 517 50 635 -17 565 4 l 485 35 b 247 -17 438 14 349 -17 b 40 211 110 -17 40 72 b 282 425 40 367 132 417 l 432 435 l 432 469 b 363 532 432 507 403 532 b 93 517 260 532 93 517 l 88 679 b 374 710 88 679 272 710 b 553 658 450 710 511 694 b 738 710 600 692 663 710 b 1040 397 942 710 1040 607 l 1026 267 l 618 267 b 758 154 619 188 658 154 m 285 143 b 432 164 342 143 432 164 b 431 293 432 207 431 250 l 306 288 b 228 217 257 285 228 267 b 285 143 228 168 246 143 m 857 410 b 738 544 857 508 825 544 b 618 410 647 544 618 501 "},"ƒ":{"ha":778,"x_min":0,"x_max":0,"o":"m 446 -65 b 213 -319 446 -262 371 -319 b 61 -301 139 -319 61 -301 l 61 -149 b 189 -153 61 -149 150 -153 b 260 -61 228 -153 260 -131 l 260 536 l 185 536 l 185 694 l 260 694 l 260 728 b 463 989 260 926 310 989 b 618 971 510 989 618 971 l 618 819 b 513 822 618 819 557 822 b 446 726 460 822 446 796 l 446 694 l 614 694 l 614 536 l 446 536 l 446 -65 "},"œ":{"ha":1158,"x_min":0,"x_max":0,"o":"m 828 154 b 1085 167 942 154 1085 167 l 1088 22 b 799 -17 1088 22 928 -17 b 586 78 704 -17 635 4 b 369 -17 536 7 467 -17 b 50 347 128 -17 50 133 b 369 710 50 561 128 710 b 594 597 472 710 544 682 b 807 710 646 685 717 710 b 1110 397 1011 710 1110 607 l 1096 267 l 688 267 b 828 154 689 188 728 154 m 369 151 b 500 347 472 151 500 219 b 369 542 500 475 472 542 b 239 347 267 542 239 475 b 369 151 239 219 267 151 m 926 410 b 807 544 926 508 894 544 b 686 410 718 544 686 500 "},"‡":{"ha":711,"x_min":0,"x_max":0,"o":"m 263 151 l 61 151 l 61 310 l 263 310 l 263 536 l 61 536 l 61 694 l 263 694 l 263 944 l 449 944 l 449 694 l 649 694 l 649 536 l 449 536 l 449 310 l 650 310 l 650 151 l 449 151 l 449 -99 l 263 -99 "},"\"":{"ha":571,"x_min":0,"x_max":0,"o":"m 322 611 l 317 944 l 496 944 l 486 611 m 83 611 l 76 944 l 256 944 l 247 611 "},"'":{"ha":332,"x_min":0,"x_max":0,"o":"m 78 944 l 257 944 l 247 611 l 83 611 "},"(":{"ha":428,"x_min":0,"x_max":0,"o":"m 390 1042 b 258 418 390 1042 258 694 b 390 -174 258 142 390 -174 l 214 -174 b 53 418 214 -174 53 86 b 214 1042 53 750 214 1042 "},")":{"ha":428,"x_min":0,"x_max":0,"o":"m 214 1042 b 375 418 214 1042 375 750 b 214 -174 375 86 214 -174 l 38 -174 b 169 418 38 -174 169 142 b 38 1042 169 694 38 1042 "},",":{"ha":365,"x_min":0,"x_max":0,"o":"m 97 190 l 303 190 l 178 -171 l 28 -171 "},"-":{"ha":567,"x_min":0,"x_max":0,"o":"m 78 454 l 489 454 l 489 285 l 78 285 "},".":{"ha":356,"x_min":0,"x_max":0,"o":"m 78 231 l 278 231 l 278 0 l 78 0 "},":":{"ha":356,"x_min":0,"x_max":0,"o":"m 78 632 l 278 632 l 278 401 l 78 401 m 78 231 l 278 231 l 278 0 l 78 0 "},";":{"ha":388,"x_min":0,"x_max":0,"o":"m 38 -171 l 188 -171 l 313 190 l 107 190 m 96 632 l 296 632 l 296 401 l 96 401 "},"=":{"ha":778,"x_min":0,"x_max":0,"o":"m 81 578 l 697 578 l 697 410 l 81 410 m 81 289 l 697 289 l 697 121 l 81 121 "},"?":{"ha":607,"x_min":0,"x_max":0,"o":"m 563 733 b 449 485 563 607 544 557 b 344 344 350 410 344 383 l 344 301 l 196 301 b 153 428 196 301 153 349 b 253 558 153 464 179 499 b 369 713 356 640 369 661 b 251 794 369 760 344 794 b 51 772 158 794 51 772 l 42 913 b 278 961 42 913 161 961 b 563 733 478 961 563 893 m 165 224 l 365 224 l 365 0 l 165 0 "},"_":{"ha":861,"x_min":0,"x_max":0,"o":"m 728 -101 l 728 -260 l 133 -260 l 133 -101 "},"{":{"ha":501,"x_min":0,"x_max":0,"o":"m 360 239 b 350 76 360 199 350 122 b 449 -28 350 21 364 -21 l 449 -186 b 168 53 243 -179 168 -112 b 178 221 168 107 178 186 b 22 363 178 285 128 335 l 22 507 b 178 638 129 532 178 574 b 168 814 178 676 168 763 b 451 1057 168 993 246 1050 l 451 899 b 349 800 367 892 349 856 b 358 622 349 754 358 663 b 203 436 358 511 339 469 b 360 239 339 403 360 350 "},"}":{"ha":501,"x_min":0,"x_max":0,"o":"m 142 239 b 299 436 142 350 163 403 b 143 622 163 469 143 511 b 153 800 143 663 153 754 b 50 899 153 856 135 892 l 50 1057 b 333 814 256 1050 333 993 b 324 638 333 763 324 676 b 479 507 324 574 372 532 l 479 363 b 324 221 374 335 324 285 b 333 53 324 186 333 107 b 53 -186 333 -112 258 -179 l 53 -28 b 151 76 138 -21 151 21 b 142 239 151 122 142 199 "},"¢":{"ha":778,"x_min":0,"x_max":0,"o":"m 375 40 b 122 347 217 51 122 143 b 375 653 122 549 219 640 l 375 793 l 528 793 l 528 647 b 638 629 585 642 638 629 l 632 490 b 469 494 632 490 522 494 b 311 347 351 494 311 451 b 471 199 311 243 351 199 b 632 204 524 199 632 204 l 638 65 b 528 47 638 65 583 51 l 528 -104 l 375 -104 "},"‘":{"ha":360,"x_min":0,"x_max":0,"o":"m 243 600 l 49 600 l 167 943 l 310 943 "},"’":{"ha":353,"x_min":0,"x_max":0,"o":"m 122 944 l 318 944 l 200 601 l 57 601 "},"÷":{"ha":778,"x_min":0,"x_max":0,"o":"m 296 672 l 479 672 l 479 489 l 296 489 m 69 432 l 708 432 l 708 265 l 69 265 m 296 207 l 479 207 l 479 24 l 296 24 "},"€":{"ha":778,"x_min":0,"x_max":0,"o":"m 36 635 l 122 635 b 463 933 150 850 242 933 b 731 897 558 933 675 910 l 725 749 b 490 768 664 758 550 768 b 315 635 389 768 338 743 l 642 635 l 642 493 l 304 493 l 304 458 l 304 401 l 642 401 l 642 260 l 321 260 b 494 149 343 174 392 149 b 725 167 557 149 672 160 l 729 15 b 463 -17 668 1 546 -17 b 125 260 246 -17 156 74 l 36 260 l 36 401 l 113 401 l 113 458 l 113 493 l 36 493 "},"&":{"ha":974,"x_min":0,"x_max":0,"o":"m 439 989 b 722 764 621 989 722 910 b 532 485 722 639 668 579 l 668 349 b 694 526 679 378 693 478 l 875 522 b 804 240 863 424 832 307 l 960 104 l 854 -17 l 707 104 b 422 -17 646 36 540 -17 b 49 272 139 -17 49 92 b 246 554 49 426 113 501 b 154 779 169 647 154 686 b 439 989 154 910 268 989 m 399 150 b 581 206 471 150 551 172 l 340 446 b 238 288 275 414 238 364 b 399 150 238 196 289 150 m 343 738 b 406 615 343 693 364 660 l 429 590 b 533 743 501 643 533 679 b 439 831 533 807 500 831 b 343 738 381 831 343 803 "},"*":{"ha":590,"x_min":0,"x_max":0,"o":"m 369 693 l 422 526 l 321 496 l 264 664 l 121 554 l 56 636 l 201 744 l 60 846 l 124 933 l 264 832 l 318 1000 l 422 965 l 369 796 l 540 796 l 540 693 "},"£":{"ha":778,"x_min":0,"x_max":0,"o":"m 644 754 b 463 765 644 754 550 765 b 390 675 413 765 390 738 l 390 601 l 603 601 l 603 443 l 390 443 l 390 158 l 563 158 l 658 181 l 688 25 l 575 0 l 104 0 l 104 158 l 207 158 l 207 443 l 118 443 l 118 601 l 207 601 l 207 683 b 438 932 207 886 289 932 b 650 899 542 932 650 899 "},"¶":{"ha":832,"x_min":0,"x_max":0,"o":"m 551 786 l 465 786 l 465 0 l 307 0 l 307 397 l 297 397 b 39 669 140 397 39 510 b 300 944 39 829 143 944 l 760 944 l 760 786 l 710 786 l 710 0 l 551 0 "},"†":{"ha":667,"x_min":0,"x_max":0,"o":"m 39 694 l 240 694 l 240 944 l 426 944 l 426 694 l 628 694 l 628 536 l 426 536 l 413 -99 l 254 -99 l 240 536 l 39 536 "},"%":{"ha":778,"x_min":0,"x_max":0,"o":"m 500 971 l 601 935 l 275 -44 l 174 -11 m 186 933 b 353 732 293 933 353 867 b 186 529 353 597 293 529 b 19 732 79 529 19 597 b 186 933 19 867 79 933 m 156 732 b 186 640 156 668 161 640 b 217 732 211 640 217 668 b 186 822 217 796 211 822 b 156 732 161 822 156 796 m 592 388 b 758 186 699 388 758 321 b 592 -17 758 51 699 -17 b 425 186 485 -17 425 51 b 592 388 425 321 485 388 m 561 186 b 592 94 561 122 567 94 b 622 186 617 94 622 122 b 592 276 622 250 617 276 b 561 186 567 276 561 250 "},"+":{"ha":778,"x_min":0,"x_max":0,"o":"m 69 432 l 304 432 l 304 665 l 471 665 l 471 432 l 708 432 l 708 265 l 471 265 l 471 29 l 304 29 l 304 265 l 69 265 "},"^":{"ha":778,"x_min":0,"x_max":0,"o":"m 381 736 l 224 435 l 29 435 l 299 917 l 457 917 l 726 435 l 532 435 "},"”":{"ha":610,"x_min":0,"x_max":0,"o":"m 122 946 l 318 946 l 199 603 l 57 603 m 378 946 l 574 946 l 456 603 l 313 603 "},"⁰":{"ha":389,"x_min":0,"x_max":0,"o":"m 194 1113 b 374 878 313 1113 374 1056 b 194 649 374 700 313 649 b 15 878 76 649 15 700 b 194 1113 15 1056 76 1113 m 194 981 b 168 878 176 981 168 969 b 194 781 168 788 176 781 b 221 878 214 781 221 788 b 194 981 221 969 214 981 "},"¹":{"ha":389,"x_min":0,"x_max":0,"o":"m 161 1097 l 294 1097 l 294 664 l 147 664 l 147 935 l 82 890 l 14 993 "},"²":{"ha":389,"x_min":0,"x_max":0,"o":"m 29 664 l 29 789 l 131 871 b 194 950 178 908 194 929 b 143 971 194 967 178 971 b 38 963 113 971 38 963 l 32 1100 b 196 1113 32 1100 133 1113 b 350 974 311 1113 350 1072 b 272 835 350 911 328 875 l 219 796 l 350 796 l 350 664 "},"³":{"ha":389,"x_min":0,"x_max":0,"o":"m 33 1100 b 183 1113 33 1100 128 1113 b 351 989 294 1113 351 1074 b 311 892 351 942 338 907 b 360 790 343 878 360 850 b 196 649 360 694 297 649 b 28 660 128 649 28 660 l 36 789 b 167 781 36 789 121 781 b 207 803 196 781 207 786 b 171 822 207 819 196 822 l 79 822 l 79 940 l 168 940 b 196 960 186 940 196 946 b 158 981 196 976 181 981 b 42 974 107 981 42 974 l 33 1100 "},"⁴":{"ha":389,"x_min":0,"x_max":0,"o":"m 203 713 l 19 713 l 19 835 l 74 1097 l 238 1097 l 165 844 l 203 844 l 222 969 l 349 969 l 349 844 l 364 844 l 364 713 l 349 713 l 349 664 l 203 664 "},"⁵":{"ha":389,"x_min":0,"x_max":0,"o":"m 349 1097 l 349 972 l 176 972 l 172 938 b 233 946 172 938 211 946 b 363 808 315 946 363 908 b 199 654 363 706 307 654 b 35 674 126 654 35 674 l 46 792 b 175 779 46 792 124 779 b 210 800 199 779 210 786 b 190 822 210 815 204 822 b 154 817 178 822 154 817 l 46 832 l 61 1097 "},"⁶":{"ha":389,"x_min":0,"x_max":0,"o":"m 349 975 b 218 983 349 975 257 983 b 172 947 182 983 172 965 b 225 954 172 946 204 954 b 369 808 328 954 369 904 b 204 649 369 706 297 649 b 22 864 76 649 22 729 b 213 1113 22 1019 65 1113 b 357 1096 263 1113 357 1096 m 199 835 b 172 824 182 835 172 824 b 197 776 172 797 182 776 b 221 806 211 776 221 788 b 199 835 221 825 213 835 "},"⁷":{"ha":389,"x_min":0,"x_max":0,"o":"m 36 1097 l 351 1097 l 351 957 l 219 650 l 51 676 l 178 933 l 178 951 l 36 951 "},"⁸":{"ha":389,"x_min":0,"x_max":0,"o":"m 194 1113 b 367 988 311 1113 367 1068 b 329 889 367 925 329 889 b 372 794 329 889 372 864 b 194 649 372 685 308 649 b 17 794 79 649 17 685 b 61 890 17 857 61 890 b 24 989 61 890 24 918 b 194 1113 24 1068 76 1113 m 194 767 b 221 797 213 767 221 779 b 204 832 221 808 213 824 l 185 832 b 168 797 176 824 168 808 b 194 767 168 779 176 767 m 194 994 b 169 968 179 994 169 986 b 185 933 169 957 178 942 l 204 933 b 219 968 211 942 219 957 b 194 994 219 985 211 994 "},"⁹":{"ha":389,"x_min":0,"x_max":0,"o":"m 44 789 b 165 781 44 789 113 781 b 211 813 203 781 211 799 b 163 807 211 814 186 807 b 21 951 68 807 21 856 b 186 1113 21 1054 86 1113 b 368 883 315 1113 368 1032 b 186 649 368 728 321 649 b 36 668 119 649 36 668 m 192 921 b 218 929 203 921 218 929 b 192 983 218 967 208 983 b 169 951 178 983 169 971 b 192 921 169 932 181 921 "},"¿":{"ha":601,"x_min":0,"x_max":0,"o":"m 40 -39 b 154 210 40 88 58 138 b 258 350 253 285 258 311 l 258 393 l 407 393 b 450 267 407 393 450 346 b 350 136 450 231 424 196 b 233 -18 247 54 233 33 b 351 -100 233 -65 258 -100 b 551 -78 444 -100 551 -78 l 561 -218 b 325 -267 561 -218 442 -267 b 40 -39 125 -267 40 -199 m 438 471 l 238 471 l 238 694 l 438 694 "},"…":{"ha":1064,"x_min":0,"x_max":0,"o":"m 78 231 l 278 231 l 278 0 l 78 0 m 432 231 l 632 231 l 632 0 l 432 0 m 786 231 l 986 231 l 986 0 l 786 0 "},"·":{"ha":356,"x_min":0,"x_max":0,"o":"m 78 463 l 278 463 l 278 232 l 78 232 "},"¤":{"ha":778,"x_min":0,"x_max":0,"o":"m 507 104 b 389 76 471 86 431 76 b 271 104 346 76 307 86 l 169 3 l 42 131 l 142 231 b 115 350 125 267 115 307 b 142 468 115 392 125 432 l 42 569 l 169 697 l 269 596 b 389 624 306 614 346 624 b 507 596 431 624 471 614 l 608 697 l 736 569 l 635 468 b 663 350 653 432 663 392 b 635 231 663 307 653 267 l 736 131 l 608 3 m 389 231 b 508 350 454 231 508 285 b 389 469 508 415 454 469 b 269 350 324 469 269 415 b 389 231 269 285 324 231 "},"‰":{"ha":1174,"x_min":0,"x_max":0,"o":"m 207 822 b 238 732 232 822 238 796 b 207 640 238 668 232 640 b 176 732 182 640 176 668 b 207 822 176 796 182 822 m 521 971 l 622 935 l 296 -44 l 194 -11 m 40 732 b 207 529 40 597 100 529 b 374 732 314 529 374 597 b 207 933 374 867 314 933 b 40 732 100 933 40 867 m 446 186 b 613 388 446 321 506 388 b 779 186 719 388 779 321 b 613 -17 779 51 719 -17 b 446 186 506 -17 446 51 m 582 186 b 613 94 582 122 588 94 b 643 186 638 94 643 122 b 613 276 643 250 638 276 b 582 186 588 276 582 250 m 803 186 b 969 388 803 321 863 388 b 1136 186 1076 388 1136 321 b 969 -17 1136 51 1076 -17 b 803 186 863 -17 803 51 m 939 186 b 969 94 939 122 944 94 b 1000 186 994 94 1000 122 b 969 276 1000 250 994 276 b 939 186 944 276 939 250 "},"≤":{"ha":778,"x_min":0,"x_max":0,"o":"m 299 468 l 676 393 l 676 213 l 92 381 l 92 542 l 676 717 l 676 536 m 92 193 l 676 193 l 676 26 l 92 26 "},"≥":{"ha":778,"x_min":0,"x_max":0,"o":"m 101 536 l 101 717 l 686 542 l 686 381 l 101 213 l 101 393 l 479 468 m 686 26 l 101 26 l 101 193 l 686 193 "},"¬":{"ha":778,"x_min":0,"x_max":0,"o":"m 685 497 l 685 144 l 518 144 l 518 331 l 79 331 l 79 497 "},"∆":{"ha":778,"x_min":0,"x_max":0,"o":"m 233 917 l 546 917 l 717 142 l 717 0 l 61 0 l 61 144 m 371 761 l 246 158 l 532 158 l 408 761 "},"Ω":{"ha":778,"x_min":0,"x_max":0,"o":"m 183 146 b 56 535 183 146 56 296 b 389 933 56 811 149 933 b 722 535 629 933 722 811 b 594 146 722 296 594 146 l 706 146 l 706 -12 l 417 -12 l 417 125 b 525 486 417 125 525 313 b 389 767 525 689 507 767 b 253 486 271 767 253 689 b 361 125 253 313 361 125 l 361 -12 l 72 -12 l 72 146 "},"ǿ":{"ha":739,"x_min":0,"x_max":0,"o":"m 369 711 b 50 349 128 711 50 563 b 174 35 50 208 83 96 l 114 -108 l 225 -150 l 282 -8 b 369 -17 308 -14 338 -17 b 689 349 611 -17 689 135 b 558 665 689 492 654 606 l 615 801 l 503 843 l 447 704 b 369 711 424 708 397 711 m 518 1046 l 574 886 l 210 783 l 168 904 m 369 142 b 342 143 360 142 350 142 l 481 486 b 500 349 494 453 500 407 b 369 142 500 214 472 142 m 369 553 b 388 551 375 553 382 551 l 256 217 b 239 349 243 250 239 294 b 369 553 239 483 267 553 "},"¡":{"ha":367,"x_min":0,"x_max":0,"o":"m 283 471 l 83 471 l 83 694 l 283 694 m 283 -250 l 82 -250 l 101 347 l 265 347 "},"‚":{"ha":356,"x_min":0,"x_max":0,"o":"m 97 181 l 293 181 l 175 -162 l 32 -162 "},"Ǻ":{"ha":836,"x_min":0,"x_max":0,"o":"m 625 1001 b 606 921 625 971 618 943 l 813 0 l 621 0 l 583 171 l 253 171 l 215 0 l 24 0 l 229 917 b 208 1001 215 940 208 969 b 417 1176 208 1114 303 1176 b 625 1001 529 1176 625 1114 m 289 338 l 547 338 l 451 786 l 385 786 m 547 1451 l 604 1285 l 243 1175 l 197 1304 m 335 1001 b 417 944 335 967 367 944 l 424 944 b 499 1001 469 946 499 968 b 417 1058 499 1036 467 1058 b 335 1001 367 1058 335 1036 "},"Ŋ":{"ha":963,"x_min":0,"x_max":0,"o":"m 103 944 l 426 944 l 654 167 l 668 167 l 668 944 l 860 944 l 860 -37 b 563 -294 860 -246 771 -294 l 563 -128 b 668 -29 632 -128 668 -108 l 668 0 l 544 0 l 308 778 l 294 778 l 294 0 l 103 0 "},"ā":{"ha":710,"x_min":0,"x_max":0,"o":"m 618 189 b 664 124 621 147 626 131 l 658 -17 b 460 32 565 -17 518 -7 b 256 -17 460 32 360 -17 b 40 211 110 -17 40 64 b 283 424 40 368 131 413 l 432 435 l 432 478 b 350 553 432 538 406 553 b 89 542 258 553 89 542 l 83 671 b 365 711 83 671 232 711 b 618 478 546 711 618 640 m 306 294 b 228 217 257 290 228 267 b 296 135 228 168 246 135 b 432 157 356 135 432 157 l 432 306 m 149 968 l 547 968 l 547 829 l 149 829 "},"ă":{"ha":711,"x_min":0,"x_max":0,"o":"m 618 471 b 374 710 618 649 529 710 b 88 679 272 710 88 679 l 93 521 b 363 532 93 521 260 532 b 432 469 403 532 432 507 l 432 435 l 282 425 b 40 211 129 414 40 368 b 247 -17 40 72 110 -17 b 460 31 343 -17 460 31 b 657 -17 504 1 536 -17 l 663 142 b 618 214 624 149 618 163 m 432 293 l 432 164 b 285 143 432 164 342 143 b 228 217 246 143 228 168 b 306 288 228 267 257 285 m 275 1039 b 351 978 282 997 307 978 b 428 1039 399 978 422 997 l 621 1039 b 351 813 607 907 522 813 b 82 1039 181 813 96 907 "},"ǻ":{"ha":710,"x_min":0,"x_max":0,"o":"m 618 189 b 664 124 621 147 626 131 l 658 -17 b 460 32 565 -17 518 -7 b 256 -17 460 32 360 -17 b 40 211 110 -17 40 64 b 283 424 40 368 131 413 l 432 435 l 432 478 b 350 553 432 538 406 553 b 89 542 258 553 89 542 l 83 671 b 365 711 83 671 232 711 b 618 478 546 711 618 640 m 306 294 b 228 217 257 290 228 267 b 296 135 228 168 246 135 b 432 157 356 135 432 157 l 432 306 m 188 886 b 350 1049 188 976 257 1049 b 513 886 440 1049 513 976 b 350 724 513 793 440 724 b 188 886 257 724 188 793 m 288 886 b 351 822 288 849 314 822 b 414 886 388 822 414 849 b 351 949 414 922 388 949 b 288 886 314 949 288 922 m 500 1325 l 556 1165 l 192 1063 l 150 1183 "},"ą":{"ha":708,"x_min":0,"x_max":0,"o":"m 618 189 b 664 124 621 147 626 131 l 658 -17 b 606 -15 639 -17 621 -15 b 544 -112 582 -37 544 -78 b 589 -158 544 -143 564 -158 b 647 -153 599 -158 647 -153 l 664 -285 b 522 -300 664 -285 582 -300 b 371 -167 436 -300 371 -250 b 483 15 371 -54 483 15 l 488 14 l 460 32 b 256 -17 460 32 360 -17 b 40 211 110 -17 40 64 b 283 424 40 368 131 413 l 432 435 l 432 478 b 350 553 432 538 406 553 b 89 542 258 553 89 542 l 83 671 b 365 711 83 671 232 711 b 618 478 546 711 618 640 m 306 294 b 228 217 257 290 228 267 b 296 135 228 168 246 135 b 432 157 356 135 432 157 l 432 306 "},"ǽ":{"ha":1089,"x_min":0,"x_max":0,"o":"m 758 154 b 1015 167 872 154 1015 167 l 1018 22 b 729 -17 1018 22 858 -17 b 517 50 635 -17 565 4 l 485 35 b 247 -17 438 14 349 -17 b 40 211 110 -17 40 72 b 282 425 40 367 132 417 l 432 435 l 432 469 b 363 532 432 507 403 532 b 93 517 260 532 93 517 l 88 679 b 374 710 88 679 272 710 b 553 658 450 710 511 694 b 738 710 600 692 663 710 b 1040 397 942 710 1040 607 l 1026 267 l 618 267 b 758 154 619 188 658 154 m 285 143 b 432 164 342 143 432 164 b 431 293 432 207 431 250 l 306 288 b 228 217 257 285 228 267 b 285 143 228 168 246 143 m 857 410 b 738 544 857 508 825 544 b 618 410 647 544 618 501 m 706 1046 l 761 886 l 397 783 l 356 904 "},"ć":{"ha":619,"x_min":0,"x_max":0,"o":"m 346 711 b 568 681 426 711 568 681 l 563 533 b 400 544 563 533 453 544 b 242 354 267 544 242 493 b 401 150 242 199 268 150 b 563 161 454 150 563 161 l 568 13 b 342 -17 568 13 419 -17 b 53 354 135 -17 53 93 b 346 711 53 600 139 711 m 485 1046 l 540 886 l 176 783 l 135 904 "},"ĉ":{"ha":619,"x_min":0,"x_max":0,"o":"m 346 711 b 568 681 426 711 568 681 l 563 533 b 400 544 563 533 453 544 b 242 354 267 544 242 493 b 401 150 242 199 268 150 b 563 161 454 150 563 161 l 568 13 b 342 -17 568 13 419 -17 b 53 354 135 -17 53 93 b 346 711 53 600 139 711 m 250 1015 l 367 1015 l 544 806 l 374 806 l 310 899 l 246 806 l 75 806 "},"č":{"ha":619,"x_min":0,"x_max":0,"o":"m 346 711 b 568 681 426 711 568 681 l 563 533 b 400 544 563 533 453 544 b 242 354 267 544 242 493 b 401 150 242 199 268 150 b 563 161 454 150 563 161 l 568 13 b 342 -17 568 13 419 -17 b 53 354 135 -17 53 93 b 346 711 53 600 139 711 m 101 1015 l 272 1015 l 336 922 l 400 1015 l 571 1015 l 393 806 l 276 806 "},"ċ":{"ha":619,"x_min":0,"x_max":0,"o":"m 346 711 b 568 681 426 711 568 681 l 563 533 b 400 544 563 533 453 544 b 242 354 267 544 242 493 b 401 150 242 199 268 150 b 563 161 454 150 563 161 l 568 13 b 342 -17 568 13 419 -17 b 53 354 135 -17 53 93 b 346 711 53 600 139 711 m 263 960 l 449 960 l 449 772 l 263 772 "},"ď":{"ha":922,"x_min":0,"x_max":0,"o":"m 756 617 l 924 617 l 1000 942 l 819 942 m 676 0 l 492 0 l 492 29 b 324 -17 492 29 394 -17 b 53 350 114 -17 53 106 b 340 711 53 604 151 711 b 490 692 392 711 490 692 l 490 972 l 676 972 m 356 150 b 490 171 421 150 490 171 l 490 536 b 354 550 490 536 414 550 b 242 350 285 550 242 490 b 356 150 242 208 268 150 "},"đ":{"ha":763,"x_min":0,"x_max":0,"o":"m 179 1025 l 633 1025 l 633 972 l 676 972 l 676 0 l 492 0 l 492 29 b 324 -17 492 29 394 -17 b 53 350 114 -17 53 106 b 340 711 53 604 151 711 b 490 692 392 711 490 692 l 490 864 l 179 864 m 356 150 b 490 171 421 150 490 171 l 490 536 b 354 550 490 536 414 550 b 242 350 285 550 242 490 b 356 150 242 208 268 150 "},"ě":{"ha":708,"x_min":0,"x_max":0,"o":"m 379 147 b 636 160 493 147 636 160 l 639 22 b 350 -17 639 22 479 -17 b 51 338 140 -17 51 88 b 358 711 51 585 156 711 b 661 397 563 711 661 607 l 647 268 l 239 268 b 379 147 240 185 279 147 m 478 410 b 358 558 478 522 446 558 b 238 410 269 558 239 515 m 118 1015 l 289 1015 l 353 922 l 417 1015 l 588 1015 l 410 806 l 293 806 "},"ē":{"ha":708,"x_min":0,"x_max":0,"o":"m 379 147 b 636 160 493 147 636 160 l 639 22 b 350 -17 639 22 479 -17 b 51 338 140 -17 51 88 b 358 711 51 585 156 711 b 661 397 563 711 661 607 l 647 268 l 239 268 b 379 147 240 185 279 147 m 478 410 b 358 558 478 522 446 558 b 238 410 269 558 239 515 m 157 968 l 556 968 l 556 829 l 157 829 "},"ĕ":{"ha":708,"x_min":0,"x_max":0,"o":"m 379 147 b 636 160 493 147 636 160 l 639 22 b 350 -17 639 22 479 -17 b 51 338 140 -17 51 88 b 358 711 51 585 156 711 b 661 397 563 711 661 607 l 647 268 l 239 268 b 379 147 240 185 279 147 m 478 410 b 358 558 478 522 446 558 b 238 410 269 558 239 515 m 271 1014 b 358 922 278 958 308 922 b 446 1014 411 922 440 960 l 586 1014 b 358 796 572 903 497 796 b 131 1014 219 796 144 903 "},"ė":{"ha":708,"x_min":0,"x_max":0,"o":"m 379 147 b 636 160 493 147 636 160 l 639 22 b 350 -17 639 22 479 -17 b 51 338 140 -17 51 88 b 358 711 51 585 156 711 b 661 397 563 711 661 607 l 647 268 l 239 268 b 379 147 240 185 279 147 m 478 410 b 358 558 478 522 446 558 b 238 410 269 558 239 515 m 264 960 l 450 960 l 450 772 l 264 772 "},"ę":{"ha":710,"x_min":0,"x_max":0,"o":"m 565 1 b 485 -112 565 1 485 -64 b 529 -158 485 -143 504 -158 b 588 -153 539 -158 588 -153 l 604 -285 b 463 -300 604 -285 522 -300 b 311 -167 376 -300 311 -250 b 383 -15 311 -99 351 -46 b 350 -17 372 -17 361 -17 b 51 338 140 -17 51 88 b 358 711 51 585 156 711 b 661 397 563 711 661 607 l 647 268 l 239 268 b 379 147 240 185 279 147 b 636 160 493 147 636 160 l 639 22 b 546 3 639 22 597 13 l 565 1 m 478 410 b 358 558 478 522 446 558 b 238 410 269 558 239 515 "},"ĝ":{"ha":742,"x_min":0,"x_max":0,"o":"m 386 -319 b 51 -126 183 -319 51 -282 b 151 39 51 -62 82 -15 b 100 144 121 60 100 101 b 154 256 100 179 154 256 b 60 463 106 290 60 342 b 351 708 60 642 189 708 b 492 690 413 708 492 690 l 715 697 l 715 549 l 611 557 b 642 463 624 538 642 503 b 349 218 642 268 539 218 b 292 224 333 218 304 221 b 278 169 292 224 278 188 b 413 124 278 133 294 125 b 715 -86 649 122 715 69 b 386 -319 715 -256 565 -319 m 397 -37 b 272 -28 358 -37 272 -28 b 235 -107 249 -51 235 -72 b 388 -167 235 -147 283 -167 b 528 -97 478 -167 528 -147 b 397 -37 528 -44 500 -39 m 353 360 b 458 463 428 360 458 397 b 353 564 458 528 428 564 b 246 463 278 564 246 528 b 353 360 246 397 278 360 m 318 1015 l 435 1015 l 613 806 l 442 806 l 378 899 l 314 806 l 143 806 "},"ğ":{"ha":742,"x_min":0,"x_max":0,"o":"m 386 -319 b 51 -126 183 -319 51 -282 b 151 39 51 -62 82 -15 b 100 144 121 60 100 101 b 154 256 100 179 154 256 b 60 463 106 290 60 342 b 351 708 60 642 189 708 b 492 690 413 708 492 690 l 715 697 l 715 549 l 611 557 b 642 463 624 538 642 503 b 349 218 642 268 539 218 b 292 224 333 218 304 221 b 278 169 292 224 278 188 b 413 124 278 133 294 125 b 715 -86 649 122 715 69 b 386 -319 715 -256 565 -319 m 397 -37 b 272 -28 358 -37 272 -28 b 235 -107 249 -51 235 -72 b 388 -167 235 -147 283 -167 b 528 -97 478 -167 528 -147 b 397 -37 528 -44 500 -39 m 353 360 b 458 463 428 360 458 397 b 353 564 458 528 428 564 b 246 463 278 564 246 528 b 353 360 246 397 278 360 m 289 1014 b 376 922 296 958 326 922 b 464 1014 429 922 458 960 l 604 1014 b 376 796 590 903 515 796 b 149 1014 238 796 163 903 "},"ġ":{"ha":742,"x_min":0,"x_max":0,"o":"m 386 -319 b 51 -126 183 -319 51 -282 b 151 39 51 -62 82 -15 b 100 144 121 60 100 101 b 154 256 100 179 154 256 b 60 463 106 290 60 342 b 351 708 60 642 189 708 b 492 690 413 708 492 690 l 715 697 l 715 549 l 611 557 b 642 463 624 538 642 503 b 349 218 642 268 539 218 b 292 224 333 218 304 221 b 278 169 292 224 278 188 b 413 124 278 133 294 125 b 715 -86 649 122 715 69 b 386 -319 715 -256 565 -319 m 397 -37 b 272 -28 358 -37 272 -28 b 235 -107 249 -51 235 -72 b 388 -167 235 -147 283 -167 b 528 -97 478 -167 528 -147 b 397 -37 528 -44 500 -39 m 353 360 b 458 463 428 360 458 397 b 353 564 458 528 428 564 b 246 463 278 564 246 528 b 353 360 246 397 278 360 m 282 960 l 468 960 l 468 772 l 282 772 "},"ģ":{"ha":742,"x_min":0,"x_max":0,"o":"m 417 810 l 236 810 l 313 1135 l 481 1135 m 386 -319 b 51 -126 183 -319 51 -282 b 151 39 51 -62 82 -15 b 100 144 121 60 100 101 b 154 256 100 179 154 256 b 60 463 106 290 60 342 b 351 708 60 642 189 708 b 492 690 413 708 492 690 l 715 697 l 715 549 l 611 557 b 642 463 624 538 642 503 b 349 218 642 268 539 218 b 292 224 333 218 304 221 b 278 169 292 224 278 188 b 413 124 278 133 294 125 b 715 -86 649 122 715 69 b 386 -319 715 -256 565 -319 m 397 -37 b 272 -28 358 -37 272 -28 b 235 -107 249 -51 235 -72 b 388 -167 235 -147 283 -167 b 528 -97 478 -167 528 -147 b 397 -37 528 -44 500 -39 m 353 360 b 458 463 428 360 458 397 b 353 564 458 528 428 564 b 246 463 278 564 246 528 b 353 360 246 397 278 360 "},"ĥ":{"ha":768,"x_min":0,"x_max":0,"o":"m 86 0 l 86 972 l 272 972 l 272 661 b 444 711 272 661 368 711 b 689 376 639 711 689 589 l 689 0 l 503 0 l 503 372 b 399 544 503 476 489 544 b 272 522 338 544 272 522 l 272 0 m 324 1251 l 440 1251 l 618 1042 l 447 1042 l 383 1135 l 319 1042 l 149 1042 "},"ħ":{"ha":768,"x_min":0,"x_max":0,"o":"m 17 900 l 86 900 l 86 972 l 272 972 l 272 900 l 471 900 l 471 739 l 272 739 l 272 661 b 444 711 272 661 368 711 b 689 376 639 711 689 589 l 689 0 l 503 0 l 503 372 b 399 544 503 476 489 544 b 272 522 338 544 272 522 l 272 0 l 86 0 l 86 739 l 17 739 "},"ĩ":{"ha":358,"x_min":0,"x_max":0,"o":"m 86 0 l 272 0 l 272 694 l 86 694 m 419 899 b 274 813 419 899 346 813 b 94 863 215 813 140 863 b -12 819 56 863 -12 819 l -53 924 b 92 1007 -53 924 19 1007 b 268 957 149 1007 229 957 b 379 1004 304 957 379 1004 "},"ī":{"ha":358,"x_min":0,"x_max":0,"o":"m 86 0 l 272 0 l 272 694 l 86 694 m -19 968 l 379 968 l 379 829 l -19 829 "},"ĭ":{"ha":358,"x_min":0,"x_max":0,"o":"m 86 0 l 272 0 l 272 694 l 86 694 m 92 1014 b 179 922 99 958 129 922 b 267 1014 232 922 261 960 l 407 1014 b 179 796 393 903 318 796 b -49 1014 40 796 -35 903 "},"į":{"ha":358,"x_min":0,"x_max":0,"o":"m 86 694 l 272 694 l 272 0 b 179 -112 272 0 179 -61 b 224 -158 179 -143 199 -158 b 282 -153 233 -158 282 -153 l 299 -285 b 157 -300 299 -285 217 -300 b 6 -167 71 -300 6 -250 b 103 0 6 -85 68 -26 l 86 0 m 86 972 l 272 972 l 272 783 l 86 783 "},"ĵ":{"ha":360,"x_min":0,"x_max":0,"o":"m 88 694 l 274 694 l 274 32 b 26 -319 274 -161 219 -222 l -47 -182 b 88 33 67 -107 88 -85 m 124 1015 l 240 1015 l 418 806 l 247 806 l 183 899 l 119 806 l -51 806 "},"ķ":{"ha":715,"x_min":0,"x_max":0,"o":"m 50 -107 l 231 -107 l 154 -432 l -14 -432 m 86 0 l 86 972 l 272 972 l 272 419 l 343 432 l 481 694 l 689 694 l 508 365 l 699 0 l 489 0 l 349 271 l 272 258 l 272 0 "},"ĺ":{"ha":375,"x_min":0,"x_max":0,"o":"m 94 972 l 281 972 l 281 0 l 94 0 m 407 1338 l 463 1178 l 99 1075 l 57 1196 "},"ľ":{"ha":524,"x_min":0,"x_max":0,"o":"m 357 617 l 525 617 l 601 942 l 421 942 m 94 972 l 281 972 l 281 0 l 94 0 "},"ļ":{"ha":375,"x_min":0,"x_max":0,"o":"m 94 972 l 281 972 l 281 0 l 94 0 m 28 -432 l 196 -432 l 272 -107 l 92 -107 "},"ń":{"ha":768,"x_min":0,"x_max":0,"o":"m 272 0 l 272 519 b 399 544 272 519 333 544 b 503 371 489 544 503 476 l 503 0 l 689 0 l 689 376 b 444 711 689 589 639 711 b 271 656 365 711 271 656 l 271 694 l 86 694 l 86 0 m 553 1046 l 608 886 l 244 783 l 203 904 "},"ň":{"ha":768,"x_min":0,"x_max":0,"o":"m 86 0 l 86 694 l 271 694 l 271 656 b 444 711 271 656 365 711 b 689 376 639 711 689 589 l 689 0 l 503 0 l 503 371 b 399 544 503 476 489 544 b 272 519 333 544 272 519 l 272 0 m 146 1015 l 317 1015 l 381 922 l 444 1015 l 615 1015 l 438 806 l 321 806 "},"ņ":{"ha":768,"x_min":0,"x_max":0,"o":"m 50 -107 l 231 -107 l 154 -432 l -14 -432 m 86 0 l 86 694 l 271 694 l 271 656 b 444 711 271 656 365 711 b 689 376 639 711 689 589 l 689 0 l 503 0 l 503 371 b 399 544 503 476 489 544 b 272 519 333 544 272 519 l 272 0 "},"ō":{"ha":739,"x_min":0,"x_max":0,"o":"m 369 711 b 50 349 128 711 50 563 b 369 -17 50 135 128 -17 b 689 349 611 -17 689 135 b 369 711 689 563 611 711 m 369 142 b 239 349 267 142 239 214 b 369 553 239 483 267 553 b 500 349 472 553 500 483 b 369 142 500 214 472 142 m 175 968 l 574 968 l 574 829 l 175 829 "},"ŏ":{"ha":739,"x_min":0,"x_max":0,"o":"m 369 711 b 50 349 128 711 50 563 b 369 -17 50 135 128 -17 b 689 349 611 -17 689 135 b 369 711 689 563 611 711 m 369 142 b 239 349 267 142 239 214 b 369 553 239 483 267 553 b 500 349 472 553 500 483 b 369 142 500 214 472 142 m 285 1014 b 372 922 292 958 322 922 b 460 1014 425 922 454 960 l 600 1014 b 372 796 586 903 511 796 b 144 1014 233 796 158 903 "},"ő":{"ha":739,"x_min":0,"x_max":0,"o":"m 369 711 b 50 349 128 711 50 563 b 369 -17 50 135 128 -17 b 689 349 611 -17 689 135 b 369 711 689 563 611 711 m 369 142 b 239 349 267 142 239 214 b 369 553 239 483 267 553 b 500 349 472 553 500 483 b 369 142 500 214 472 142 m 519 1136 l 671 1043 l 497 782 l 357 872 m 236 1135 l 388 1043 l 214 782 l 74 872 "},"ŕ":{"ha":517,"x_min":0,"x_max":0,"o":"m 86 694 l 271 694 l 271 621 b 493 711 271 621 388 690 l 493 524 b 272 465 371 500 272 465 l 272 0 l 86 0 m 417 1046 l 472 886 l 108 783 l 67 904 "},"ŗ":{"ha":517,"x_min":0,"x_max":0,"o":"m 22 -432 l 190 -432 l 267 -107 l 86 -107 m 86 694 l 271 694 l 271 621 b 493 711 271 621 388 690 l 493 524 b 272 465 371 500 272 465 l 272 0 l 86 0 "},"ř":{"ha":517,"x_min":0,"x_max":0,"o":"m 86 694 l 271 694 l 271 621 b 493 711 271 621 388 690 l 493 524 b 272 465 371 500 272 465 l 272 0 l 86 0 m 7 1015 l 178 1015 l 242 922 l 306 1015 l 476 1015 l 299 806 l 182 806 "},"ś":{"ha":656,"x_min":0,"x_max":0,"o":"m 585 521 b 332 543 585 521 413 543 b 235 488 251 543 235 525 b 389 425 235 456 261 449 b 607 208 550 396 607 349 b 328 -17 607 46 501 -17 b 61 17 225 -17 61 17 l 67 172 b 310 150 67 172 239 150 b 422 204 399 150 422 168 b 279 269 422 235 407 249 b 50 483 129 294 50 331 b 318 710 50 644 172 710 b 588 675 418 710 588 675 m 476 1046 l 532 886 l 168 783 l 126 904 "},"ŝ":{"ha":656,"x_min":0,"x_max":0,"o":"m 585 521 b 332 543 585 521 413 543 b 235 488 251 543 235 525 b 389 425 235 456 261 449 b 607 208 550 396 607 349 b 328 -17 607 46 501 -17 b 61 17 225 -17 61 17 l 67 172 b 310 150 67 172 239 150 b 422 204 399 150 422 168 b 279 269 422 235 407 249 b 50 483 129 294 50 331 b 318 710 50 644 172 710 b 588 675 418 710 588 675 m 269 1015 l 386 1015 l 564 806 l 393 806 l 329 899 l 265 806 l 94 806 "},"ş":{"ha":656,"x_min":0,"x_max":0,"o":"m 526 -176 b 372 -335 526 -285 467 -335 b 243 -319 313 -335 243 -319 l 249 -211 b 315 -212 249 -211 292 -212 b 368 -176 353 -212 368 -200 b 315 -146 368 -153 353 -146 l 282 -146 l 282 -14 b 61 17 182 -7 61 17 l 67 172 b 310 150 67 172 239 150 b 422 204 399 150 422 168 b 279 269 422 235 407 249 b 50 483 129 294 50 331 b 318 710 50 644 172 710 b 588 675 418 710 588 675 l 585 521 b 332 543 585 521 413 543 b 235 488 251 543 235 525 b 389 425 235 456 261 449 b 607 208 550 396 607 349 b 356 -15 607 54 513 -10 l 356 -51 b 526 -176 464 -53 526 -72 "},"ș":{"ha":656,"x_min":0,"x_max":0,"o":"m -24 -432 l 144 -432 l 221 -107 l 40 -107 m 585 521 b 332 543 585 521 413 543 b 235 488 251 543 235 525 b 389 425 235 456 261 449 b 607 208 550 396 607 349 b 328 -17 607 46 501 -17 b 61 17 225 -17 61 17 l 67 172 b 310 150 67 172 239 150 b 422 204 399 150 422 168 b 279 269 422 235 407 249 b 50 483 129 294 50 331 b 318 710 50 644 172 710 b 588 675 418 710 588 675 "},"ť":{"ha":676,"x_min":0,"x_max":0,"o":"m 301 525 l 301 263 b 360 161 301 193 301 161 b 465 164 399 161 465 164 l 474 4 b 332 -17 474 4 381 -17 b 115 247 164 -17 115 47 l 115 525 l 33 525 l 33 693 l 115 693 l 115 888 l 301 888 l 301 693 l 472 693 l 472 525 m 703 597 l 522 597 l 522 958 l 703 958 "},"ț":{"ha":506,"x_min":0,"x_max":0,"o":"m 4 -432 l 172 -432 l 249 -107 l 68 -107 m 300 536 l 300 251 b 358 150 300 182 300 150 b 464 153 397 150 464 153 l 472 4 b 331 -17 472 4 379 -17 b 114 247 163 -17 114 47 l 114 536 l 32 536 l 32 694 l 114 694 l 114 888 l 300 888 l 300 694 l 471 694 l 471 536 "},"ŧ":{"ha":507,"x_min":0,"x_max":0,"o":"m 300 525 l 300 429 l 432 429 l 432 290 l 300 290 l 300 263 b 358 161 300 193 300 161 b 464 164 397 161 464 164 l 472 4 b 331 -17 472 4 379 -17 b 114 247 163 -17 114 47 l 114 290 l 72 290 l 72 429 l 114 429 l 114 525 l 32 525 l 32 693 l 114 693 l 114 888 l 300 888 l 300 693 l 471 693 l 471 525 "},"ũ":{"ha":768,"x_min":0,"x_max":0,"o":"m 496 694 l 496 175 b 363 150 496 175 432 150 b 265 328 271 150 265 204 l 265 694 l 79 694 l 79 331 b 324 -17 79 96 121 -17 b 497 39 397 -17 497 39 l 497 0 l 682 0 l 682 694 m 610 899 b 464 813 610 899 536 813 b 285 863 406 813 331 863 b 178 819 246 863 178 819 l 138 924 b 282 1007 138 924 210 1007 b 458 957 339 1007 419 957 b 569 1004 494 957 569 1004 "},"ū":{"ha":768,"x_min":0,"x_max":0,"o":"m 496 694 l 496 175 b 363 150 496 175 432 150 b 265 328 271 150 265 204 l 265 694 l 79 694 l 79 331 b 324 -17 79 96 121 -17 b 497 39 397 -17 497 39 l 497 0 l 682 0 l 682 694 m 185 968 l 583 968 l 583 829 l 185 829 "},"ŭ":{"ha":768,"x_min":0,"x_max":0,"o":"m 496 694 l 496 175 b 363 150 496 175 432 150 b 265 328 271 150 265 204 l 265 694 l 79 694 l 79 331 b 324 -17 79 96 121 -17 b 497 39 397 -17 497 39 l 497 0 l 682 0 l 682 694 m 296 1014 b 383 922 303 958 333 922 b 471 1014 436 922 465 960 l 611 1014 b 383 796 597 903 522 796 b 156 1014 244 796 169 903 "},"ů":{"ha":768,"x_min":0,"x_max":0,"o":"m 496 694 l 496 175 b 363 150 496 175 432 150 b 265 328 271 150 265 204 l 265 694 l 79 694 l 79 331 b 324 -17 79 96 121 -17 b 497 39 397 -17 497 39 l 497 0 l 682 0 l 682 694 m 221 886 b 383 1049 221 976 290 1049 b 546 886 474 1049 546 976 b 383 724 546 793 474 724 b 221 886 290 724 221 793 m 321 886 b 385 822 321 849 347 822 b 447 886 421 822 447 849 b 385 949 447 922 421 949 b 321 886 347 949 321 922 "},"ű":{"ha":768,"x_min":0,"x_max":0,"o":"m 496 694 l 496 175 b 363 150 496 175 432 150 b 265 328 271 150 265 204 l 265 694 l 79 694 l 79 331 b 324 -17 79 96 121 -17 b 497 39 397 -17 497 39 l 497 0 l 682 0 l 682 694 m 579 1136 l 731 1043 l 557 782 l 417 872 m 296 1135 l 447 1043 l 274 782 l 133 872 "},"ų":{"ha":768,"x_min":0,"x_max":0,"o":"m 682 693 l 682 0 b 583 -112 682 0 583 -50 b 628 -158 583 -143 603 -158 b 686 -153 638 -158 686 -153 l 703 -285 b 561 -300 703 -285 621 -300 b 410 -167 475 -300 410 -250 b 513 0 410 -85 476 -26 l 496 0 l 496 29 b 324 -17 496 29 388 -17 b 79 331 121 -17 79 93 l 79 693 l 265 693 l 265 331 b 363 151 265 206 269 151 b 496 175 408 151 496 175 l 496 693 "},"ẁ":{"ha":1072,"x_min":0,"x_max":0,"o":"m 217 694 l 301 158 l 335 158 l 440 681 l 632 681 l 738 158 l 771 158 l 856 694 l 1039 694 l 907 0 l 615 0 l 536 425 l 457 0 l 165 0 l 33 694 m 717 904 l 675 783 l 311 886 l 367 1046 "},"ẃ":{"ha":1072,"x_min":0,"x_max":0,"o":"m 217 694 l 301 158 l 335 158 l 440 681 l 632 681 l 738 158 l 771 158 l 856 694 l 1039 694 l 907 0 l 615 0 l 536 425 l 457 0 l 165 0 l 33 694 m 699 1046 l 754 886 l 390 783 l 349 904 "},"ŵ":{"ha":1072,"x_min":0,"x_max":0,"o":"m 217 694 l 301 158 l 335 158 l 440 681 l 632 681 l 738 158 l 771 158 l 856 694 l 1039 694 l 907 0 l 615 0 l 536 425 l 457 0 l 165 0 l 33 694 m 479 1015 l 596 1015 l 774 806 l 603 806 l 539 899 l 475 806 l 304 806 "},"ẅ":{"ha":1072,"x_min":0,"x_max":0,"o":"m 217 694 l 301 158 l 335 158 l 440 681 l 632 681 l 738 158 l 771 158 l 856 694 l 1039 694 l 907 0 l 615 0 l 536 425 l 457 0 l 165 0 l 33 694 m 300 1011 l 478 1011 l 478 828 l 300 828 m 600 1011 l 778 1011 l 778 828 l 600 828 "},"ỳ":{"ha":694,"x_min":0,"x_max":0,"o":"m 206 694 l 332 158 l 364 158 l 490 694 l 674 694 l 429 -292 l 247 -292 l 324 0 l 193 0 l 22 694 m 517 904 l 475 783 l 111 886 l 167 1046 "},"ŷ":{"ha":694,"x_min":0,"x_max":0,"o":"m 206 694 l 332 158 l 364 158 l 490 694 l 674 694 l 429 -292 l 247 -292 l 324 0 l 193 0 l 22 694 m 289 1015 l 406 1015 l 583 806 l 413 806 l 349 899 l 285 806 l 114 806 "},"ź":{"ha":631,"x_min":0,"x_max":0,"o":"m 57 528 l 349 528 l 57 167 l 57 0 l 572 0 l 572 167 l 281 167 l 572 528 l 572 694 l 57 694 m 464 1046 l 519 886 l 156 783 l 114 904 "},"ż":{"ha":631,"x_min":0,"x_max":0,"o":"m 57 528 l 349 528 l 57 167 l 57 0 l 572 0 l 572 167 l 281 167 l 572 528 l 572 694 l 57 694 m 221 960 l 407 960 l 407 772 l 221 772 "},"∞":{"ha":778,"x_min":0,"x_max":0,"o":"m 231 168 b 38 404 106 168 38 246 b 228 643 38 565 106 643 b 389 535 294 643 346 617 b 550 643 432 617 482 643 b 740 406 672 643 740 565 b 547 168 740 246 672 168 b 389 275 482 168 431 193 b 231 168 346 193 296 168 m 326 406 b 257 483 303 453 283 483 b 207 404 218 483 207 451 b 257 328 207 360 219 328 b 326 406 283 328 303 361 m 451 406 b 521 328 475 361 494 328 b 571 404 558 328 571 360 b 521 483 571 451 560 483 b 451 406 494 483 475 453 "},"≈":{"ha":778,"x_min":0,"x_max":0,"o":"m 693 439 b 535 368 693 439 618 368 b 249 429 458 368 301 429 b 96 375 181 429 96 375 l 82 524 b 254 596 82 524 169 596 b 539 535 329 596 471 535 b 682 588 593 535 682 588 m 693 133 b 535 63 693 133 618 63 b 249 124 458 63 301 124 b 96 69 181 124 96 69 l 82 218 b 254 290 82 218 169 290 b 539 229 329 290 471 229 b 682 282 593 229 682 282 "},"ỹ":{"ha":694,"x_min":0,"x_max":0,"o":"m 206 693 l 332 182 l 364 182 l 490 693 l 674 693 l 429 -292 l 247 -292 l 318 0 l 193 0 l 22 693 m 581 899 b 435 813 581 899 507 813 b 256 863 376 813 301 863 b 149 819 217 863 149 819 l 108 924 b 253 1007 108 924 181 1007 b 429 957 310 1007 390 957 b 540 1004 465 957 540 1004 "},"Ằ":{"ha":833,"x_min":0,"x_max":0,"o":"m 236 958 l 600 958 l 808 0 l 617 0 l 574 161 l 251 161 l 215 0 l 24 0 m 292 346 l 538 346 l 447 782 l 385 782 m 332 1208 b 422 1129 339 1164 371 1129 b 514 1208 476 1129 508 1164 l 682 1208 b 422 999 668 1090 590 999 b 164 1208 254 999 178 1090 m 549 1406 l 507 1285 l 143 1388 l 199 1547 "},"Ỹ":{"ha":751,"x_min":0,"x_max":0,"o":"m 474 0 l 282 0 l 282 410 l -7 958 l 206 958 l 376 624 l 546 958 l 758 958 l 474 408 m 608 1164 b 463 1078 608 1164 535 1078 b 283 1128 404 1078 329 1128 b 176 1085 244 1128 176 1085 l 136 1189 b 281 1272 136 1189 208 1272 b 457 1222 338 1272 418 1222 b 568 1269 493 1222 568 1269 "},"ễ":{"ha":710,"x_min":0,"x_max":0,"o":"m 379 154 b 636 167 493 154 636 167 l 639 22 b 350 -17 639 22 479 -17 b 51 338 140 -17 51 88 b 358 710 51 585 156 710 b 661 397 563 710 661 607 l 647 267 l 239 267 b 379 154 240 188 279 154 m 478 410 b 358 544 478 508 446 544 b 238 410 269 544 239 501 m 307 974 l 424 974 l 601 764 l 431 764 l 367 857 l 303 764 l 132 764 m 588 1121 b 442 1035 588 1121 514 1035 b 263 1085 383 1035 308 1085 b 156 1042 224 1085 156 1042 l 115 1146 b 260 1229 115 1146 188 1229 b 436 1179 317 1229 397 1179 b 547 1226 472 1179 547 1226 "},"ỗ":{"ha":739,"x_min":0,"x_max":0,"o":"m 369 711 b 50 349 128 711 50 563 b 369 -17 50 135 128 -17 b 689 349 611 -17 689 135 b 369 711 689 563 611 711 m 369 142 b 239 349 267 142 239 214 b 369 553 239 483 267 553 b 500 349 472 553 500 483 b 369 142 500 214 472 142 m 311 974 l 428 974 l 606 764 l 435 764 l 371 857 l 307 764 l 136 764 m 588 1121 b 442 1035 588 1121 514 1035 b 263 1085 383 1035 308 1085 b 156 1042 224 1085 156 1042 l 115 1146 b 260 1229 115 1146 188 1229 b 436 1179 317 1229 397 1179 b 547 1226 472 1179 547 1226 "},"ẫ":{"ha":710,"x_min":0,"x_max":0,"o":"m 618 189 b 664 124 621 147 626 131 l 658 -17 b 460 32 565 -17 518 -7 b 256 -17 460 32 360 -17 b 40 211 110 -17 40 64 b 283 424 40 368 131 413 l 432 435 l 432 478 b 350 553 432 538 406 553 b 89 542 258 553 89 542 l 83 671 b 365 711 83 671 232 711 b 618 478 546 711 618 640 m 306 294 b 228 217 257 290 228 267 b 296 135 228 168 246 135 b 432 157 356 135 432 157 l 432 306 m 267 974 l 383 974 l 561 764 l 390 764 l 326 857 l 263 764 l 92 764 m 557 1121 b 411 1035 557 1121 483 1035 b 232 1085 353 1035 278 1085 b 125 1042 193 1085 125 1042 l 85 1146 b 229 1229 85 1146 157 1229 b 406 1179 286 1229 367 1179 b 517 1226 442 1179 517 1226 "},"„":{"ha":585,"x_min":0,"x_max":0,"o":"m 185 -181 l -10 -181 l 108 163 l 251 163 m 449 -181 l 254 -181 l 372 163 l 515 163 "},"‹":{"ha":442,"x_min":0,"x_max":0,"o":"m 214 339 l 365 219 l 365 32 l 56 269 l 56 403 l 365 631 l 365 443 "},"›":{"ha":442,"x_min":0,"x_max":0,"o":"m 75 457 l 75 644 l 385 417 l 385 283 l 75 46 l 75 233 l 226 353 "},"«":{"ha":835,"x_min":0,"x_max":0,"o":"m 214 339 l 365 219 l 365 32 l 56 269 l 56 403 l 365 631 l 365 443 m 607 339 l 758 219 l 758 32 l 449 269 l 449 403 l 758 631 l 758 443 "},"»":{"ha":838,"x_min":0,"x_max":0,"o":"m 469 443 l 469 631 l 779 403 l 779 269 l 469 32 l 469 219 l 621 339 m 76 443 l 76 631 l 386 403 l 386 269 l 76 32 l 76 219 l 228 339 "},"/":{"ha":647,"x_min":0,"x_max":0,"o":"m 443 997 l 607 939 l 207 -47 l 43 11 "},"b":{"ha":756,"x_min":0,"x_max":0,"o":"m 422 711 b 703 357 611 711 703 624 b 357 -17 703 58 601 -17 b 86 3 290 -17 86 3 l 86 972 l 272 972 l 272 674 b 422 711 272 674 361 711 m 357 150 b 514 357 485 150 514 207 b 397 544 514 497 469 544 b 272 526 342 544 272 526 l 272 156 b 357 150 272 156 336 150 "},"c":{"ha":619,"x_min":0,"x_max":0,"o":"m 346 711 b 568 681 426 711 568 681 l 563 533 b 400 544 563 533 453 544 b 242 354 267 544 242 493 b 401 150 242 199 268 150 b 563 161 454 150 563 161 l 568 13 b 342 -17 568 13 419 -17 b 53 354 135 -17 53 93 b 346 711 53 600 139 711 "},"e":{"ha":708,"x_min":0,"x_max":0,"o":"m 379 147 b 636 160 493 147 636 160 l 639 22 b 350 -17 639 22 479 -17 b 51 338 140 -17 51 88 b 358 711 51 585 156 711 b 661 397 563 711 661 607 l 647 268 l 239 268 b 379 147 240 185 279 147 m 478 410 b 358 558 478 522 446 558 b 238 410 269 558 239 515 "},"f":{"ha":496,"x_min":0,"x_max":0,"o":"m 306 0 l 119 0 l 119 536 l 44 536 l 44 694 l 119 694 l 119 725 b 322 989 119 925 171 989 b 481 971 368 989 481 971 l 478 819 b 372 822 478 819 417 822 b 306 724 319 822 306 794 l 306 694 l 474 694 l 474 536 l 306 536 "},"i":{"ha":358,"x_min":0,"x_max":0,"o":"m 86 694 l 272 694 l 272 0 l 86 0 m 86 972 l 272 972 l 272 783 l 86 783 "},"j":{"ha":360,"x_min":0,"x_max":0,"o":"m 88 694 l 274 694 l 274 32 b 26 -319 274 -161 219 -222 l -47 -182 b 88 33 67 -107 88 -85 m 88 972 l 274 972 l 274 783 l 88 783 "},"k":{"ha":715,"x_min":0,"x_max":0,"o":"m 86 0 l 86 972 l 272 972 l 272 419 l 343 432 l 481 694 l 689 694 l 508 365 l 699 0 l 489 0 l 349 271 l 272 258 l 272 0 "},"l":{"ha":375,"x_min":0,"x_max":0,"o":"m 94 972 l 281 972 l 281 0 l 94 0 "},"m":{"ha":1165,"x_min":0,"x_max":0,"o":"m 86 0 l 86 694 l 271 694 l 271 656 b 435 711 271 656 367 711 b 608 646 513 711 567 690 b 842 711 608 646 736 711 b 1086 376 1031 711 1086 600 l 1086 0 l 900 0 l 900 371 b 803 544 900 476 886 544 b 674 518 747 544 674 518 b 679 360 674 518 679 414 l 679 0 l 493 0 l 493 357 b 396 544 493 482 482 544 b 272 519 335 544 272 519 l 272 0 "},"p":{"ha":756,"x_min":0,"x_max":0,"o":"m 86 694 l 271 694 l 271 657 b 429 711 271 657 361 711 b 703 353 613 711 703 611 b 388 -17 703 57 600 -17 b 272 -6 336 -17 272 -6 l 272 -292 l 86 -292 m 393 544 b 272 517 336 544 272 517 l 272 153 b 374 144 272 153 335 144 b 514 353 485 144 514 206 b 393 544 514 493 467 544 "},"q":{"ha":754,"x_min":0,"x_max":0,"o":"m 332 -17 b 53 338 143 -17 53 71 b 397 711 53 636 153 711 b 668 693 478 711 668 693 l 668 -292 l 482 -292 l 482 21 b 332 -17 482 21 393 -17 m 397 550 b 239 338 269 550 239 488 b 357 150 239 197 285 150 b 482 168 413 150 482 168 l 482 544 b 397 550 482 544 431 550 "},"r":{"ha":517,"x_min":0,"x_max":0,"o":"m 86 694 l 271 694 l 271 621 b 493 711 271 621 388 690 l 493 524 b 272 465 371 500 272 465 l 272 0 l 86 0 "},"t":{"ha":506,"x_min":0,"x_max":0,"o":"m 300 536 l 300 251 b 358 150 300 182 300 150 b 464 153 397 150 464 153 l 472 4 b 331 -17 472 4 379 -17 b 114 247 163 -17 114 47 l 114 536 l 32 536 l 32 694 l 114 694 l 114 888 l 300 888 l 300 694 l 471 694 l 471 536 "},"u":{"ha":768,"x_min":0,"x_max":0,"o":"m 682 694 l 682 0 l 497 0 l 497 39 b 324 -17 497 39 397 -17 b 79 331 121 -17 79 96 l 79 694 l 265 694 l 265 328 b 363 150 265 204 271 150 b 496 175 432 150 496 175 l 496 694 "},"v":{"ha":692,"x_min":0,"x_max":0,"o":"m 215 694 l 326 158 l 365 158 l 482 694 l 671 694 l 504 0 l 188 0 l 21 694 "},"w":{"ha":1072,"x_min":0,"x_max":0,"o":"m 217 694 l 301 158 l 335 158 l 440 681 l 632 681 l 738 158 l 771 158 l 856 694 l 1039 694 l 907 0 l 615 0 l 536 425 l 457 0 l 165 0 l 33 694 "},"x":{"ha":658,"x_min":0,"x_max":0,"o":"m 218 694 l 329 479 l 442 694 l 640 694 l 443 354 l 640 0 l 442 0 l 329 213 l 218 0 l 19 0 l 210 349 l 19 694 "},"y":{"ha":694,"x_min":0,"x_max":0,"o":"m 206 694 l 332 158 l 364 158 l 490 694 l 674 694 l 429 -292 l 247 -292 l 324 0 l 193 0 l 22 694 "},"z":{"ha":631,"x_min":0,"x_max":0,"o":"m 57 694 l 572 694 l 572 528 l 281 167 l 572 167 l 572 0 l 57 0 l 57 167 l 349 528 l 57 528 "},"d":{"ha":763,"x_min":0,"x_max":0,"o":"m 676 0 l 492 0 l 492 29 b 324 -17 492 29 394 -17 b 53 350 114 -17 53 106 b 340 711 53 604 151 711 b 490 692 392 711 490 692 l 490 972 l 676 972 m 356 150 b 490 171 421 150 490 171 l 490 536 b 354 550 490 536 414 550 b 242 350 285 550 242 490 b 356 150 242 208 268 150 "},"":{"ha":360,"x_min":0,"x_max":0,"o":"m 88 694 l 274 694 l 274 32 b 26 -319 274 -161 219 -222 l -47 -182 b 88 33 67 -107 88 -85 "},"Ð":{"ha":892,"x_min":0,"x_max":0,"o":"m 35 568 l 110 568 l 110 958 l 425 958 b 826 497 754 958 826 814 b 425 0 826 172 764 0 l 110 0 l 110 385 l 35 385 m 629 497 b 425 776 629 692 611 776 l 299 776 l 299 568 l 479 568 l 479 385 l 299 385 l 299 182 l 425 182 b 629 497 611 182 629 300 "},"√":{"ha":778,"x_min":0,"x_max":0,"o":"m 1 611 l 232 611 l 360 -22 l 378 -22 l 604 1099 l 793 1099 l 515 -181 l 218 -181 l 76 444 l 1 444 "},"∏":{"ha":778,"x_min":0,"x_max":0,"o":"m 465 889 l 308 889 l 308 -250 l 117 -250 l 117 889 l 43 889 l 43 1056 l 736 1056 l 736 889 l 657 889 l 657 -250 l 465 -250 "},"◊":{"ha":778,"x_min":0,"x_max":0,"o":"m 61 450 l 268 917 l 511 917 l 717 450 l 511 0 l 268 0 m 532 450 l 401 758 l 378 758 l 246 450 l 378 158 l 401 158 "},"∫":{"ha":778,"x_min":0,"x_max":0,"o":"m 479 -22 b 272 -276 479 -219 386 -276 b 138 -258 218 -276 138 -258 l 143 -106 b 217 -110 143 -106 178 -110 b 288 -18 269 -110 288 -87 l 288 824 b 494 1085 288 1022 342 1085 b 640 1065 547 1085 640 1065 l 635 913 b 546 918 635 913 590 918 b 479 822 493 918 479 892 l 479 -22 "},"∂":{"ha":778,"x_min":0,"x_max":0,"o":"m 113 926 b 364 989 113 926 231 989 b 719 482 618 989 719 824 b 365 -12 719 147 618 -12 b 39 300 153 -12 39 89 b 343 608 39 497 149 608 b 519 575 438 608 519 575 b 332 831 508 764 471 831 b 118 783 231 831 118 783 m 367 450 b 239 300 271 450 239 386 b 365 146 239 206 272 146 b 519 419 465 146 519 222 b 367 450 519 419 467 450 "},"⁄":{"ha":14,"x_min":0,"x_max":0,"o":"m 235 918 l 308 869 l -237 -10 l -311 40 "},"¼":{"ha":761,"x_min":0,"x_max":0,"o":"m 172 1097 l 306 1097 l 306 664 l 158 664 l 158 935 l 93 890 l 25 993 m 586 918 l 660 869 l 114 -10 l 40 40 m 568 -90 l 385 -90 l 385 32 l 439 294 l 603 294 l 531 42 l 568 42 l 588 167 l 714 167 l 714 42 l 729 42 l 729 -90 l 714 -90 l 714 -139 l 568 -139 "},"₀":{"ha":389,"x_min":0,"x_max":0,"o":"m 194 310 b 374 75 313 310 374 253 b 194 -154 374 -103 313 -154 b 15 75 76 -154 15 -103 b 194 310 15 253 76 310 m 194 178 b 168 75 176 178 168 167 b 194 -22 168 -15 176 -22 b 221 75 214 -22 221 -15 b 194 178 221 167 214 178 "},"₁":{"ha":389,"x_min":0,"x_max":0,"o":"m 182 294 l 315 294 l 315 -139 l 168 -139 l 168 132 l 103 88 l 35 190 "},"₂":{"ha":389,"x_min":0,"x_max":0,"o":"m 36 -139 l 36 -14 l 138 68 b 201 147 185 106 201 126 b 150 168 201 164 185 168 b 44 160 119 168 44 160 l 39 297 b 203 310 39 297 140 310 b 357 171 318 310 357 269 b 279 32 357 108 335 72 l 226 -7 l 357 -7 l 357 -139 "},"₃":{"ha":389,"x_min":0,"x_max":0,"o":"m 32 297 b 182 310 32 297 126 310 b 350 186 293 310 350 271 b 310 89 350 139 336 104 b 358 -12 342 75 358 47 b 194 -154 358 -108 296 -154 b 26 -143 126 -154 26 -143 l 35 -14 b 165 -22 35 -14 119 -22 b 206 0 194 -22 206 -17 b 169 19 206 17 194 19 l 78 19 l 78 138 l 167 138 b 194 157 185 138 194 143 b 157 178 194 174 179 178 b 40 171 106 178 40 171 l 32 297 "},"₄":{"ha":389,"x_min":0,"x_max":0,"o":"m 208 -90 l 25 -90 l 25 32 l 79 294 l 243 294 l 171 42 l 208 42 l 228 167 l 354 167 l 354 42 l 369 42 l 369 -90 l 354 -90 l 354 -139 l 208 -139 "},"₅":{"ha":389,"x_min":0,"x_max":0,"o":"m 339 294 l 339 169 l 167 169 l 163 135 b 224 143 163 135 201 143 b 353 6 306 143 353 106 b 189 -149 353 -97 297 -149 b 25 -129 117 -149 25 -129 l 36 -11 b 165 -24 36 -11 114 -24 b 200 -3 189 -24 200 -17 b 181 19 200 13 194 19 b 144 14 168 19 144 14 l 36 29 l 51 294 "},"₆":{"ha":389,"x_min":0,"x_max":0,"o":"m 343 172 b 213 181 343 172 251 181 b 167 144 176 181 167 163 b 219 151 167 143 199 151 b 364 6 322 151 364 101 b 199 -154 364 -97 292 -154 b 17 61 71 -154 17 -74 b 207 310 17 217 60 310 b 351 293 257 310 351 293 m 193 32 b 167 21 176 32 167 21 b 192 -26 167 -6 176 -26 b 215 3 206 -26 215 -15 b 193 32 215 22 207 32 "},"₇":{"ha":389,"x_min":0,"x_max":0,"o":"m 36 294 l 351 294 l 351 154 l 219 -153 l 51 -126 l 178 131 l 178 149 l 36 149 "},"₈":{"ha":389,"x_min":0,"x_max":0,"o":"m 193 310 b 365 185 310 310 365 265 b 328 86 365 122 328 86 b 371 -8 328 86 371 61 b 193 -154 371 -118 307 -154 b 15 -8 78 -154 15 -118 b 60 88 15 54 60 88 b 22 186 60 88 22 115 b 193 310 22 265 75 310 m 193 -36 b 219 -6 211 -36 219 -24 b 203 29 219 6 211 21 l 183 29 b 167 -6 175 21 167 6 b 193 -36 167 -24 175 -36 m 193 192 b 168 165 178 192 168 183 b 183 131 168 154 176 139 l 203 131 b 218 165 210 139 218 154 b 193 192 218 182 210 192 "},"₉":{"ha":389,"x_min":0,"x_max":0,"o":"m 43 -14 b 164 -22 43 -14 111 -22 b 210 10 201 -22 210 -4 b 161 4 210 11 185 4 b 19 149 67 4 19 53 b 185 310 19 251 85 310 b 367 81 314 310 367 229 b 185 -154 367 -75 319 -154 b 35 -135 118 -154 35 -135 m 190 118 b 217 126 201 118 217 126 b 190 181 217 164 207 181 b 168 149 176 181 168 168 b 190 118 168 129 179 118 "},"½":{"ha":753,"x_min":0,"x_max":0,"o":"m 172 1097 l 306 1097 l 306 664 l 158 664 l 158 935 l 93 890 l 25 993 m 586 918 l 660 869 l 114 -10 l 40 40 m 390 -139 l 390 -14 l 492 68 b 556 147 539 106 556 126 b 504 168 556 164 539 168 b 399 160 474 168 399 160 l 393 297 b 557 310 393 297 494 310 b 711 171 672 310 711 269 b 633 32 711 108 689 72 l 581 -7 l 711 -7 l 711 -139 "},"¾":{"ha":779,"x_min":0,"x_max":0,"o":"m 56 1100 b 206 1113 56 1100 150 1113 b 374 989 317 1113 374 1074 b 333 892 374 942 360 907 b 382 790 365 878 382 850 b 218 649 382 694 319 649 b 50 660 150 649 50 660 l 58 789 b 189 781 58 789 143 781 b 229 803 218 781 229 786 b 193 822 229 819 218 822 l 101 822 l 101 940 l 190 940 b 218 960 208 940 218 946 b 181 981 218 976 203 981 b 64 974 129 981 64 974 l 56 1100 m 606 918 l 679 869 l 133 -10 l 60 40 m 588 -90 l 404 -90 l 404 32 l 458 294 l 622 294 l 550 42 l 588 42 l 607 167 l 733 167 l 733 42 l 749 42 l 749 -90 l 733 -90 l 733 -139 l 588 -139 "},"þ":{"ha":756,"x_min":0,"x_max":0,"o":"m 374 144 b 514 354 485 144 514 206 b 397 544 514 493 469 544 b 272 526 342 544 272 526 l 272 153 b 374 144 272 153 335 144 m 422 711 b 703 354 611 711 703 624 b 388 -17 703 57 600 -17 b 272 -6 336 -17 272 -6 l 272 -292 l 86 -292 l 86 972 l 272 972 l 272 674 b 422 711 272 674 361 711 "},"ŋ":{"ha":767,"x_min":0,"x_max":0,"o":"m 85 0 l 85 693 l 271 693 l 271 663 b 450 711 271 663 385 711 b 689 363 631 711 689 574 l 689 7 b 442 -344 689 -186 649 -247 l 358 -190 b 503 0 485 -121 503 -100 l 503 363 b 411 540 503 454 488 540 b 271 515 365 540 271 515 l 271 0 "},"Ţ":{"ha":0,"x_min":0,"x_max":0,"o":""},"ţ":{"ha":506,"x_min":0,"x_max":0,"o":"m 394 -176 b 240 -335 394 -285 335 -335 b 111 -319 181 -335 111 -319 l 117 -211 b 183 -212 117 -211 160 -212 b 236 -176 221 -212 236 -200 b 183 -146 236 -153 221 -146 l 150 -146 l 150 1 l 213 1 b 114 247 138 32 114 106 l 114 536 l 32 536 l 32 694 l 114 694 l 114 888 l 300 888 l 300 694 l 471 694 l 471 536 l 300 536 l 300 251 b 358 150 300 182 300 150 b 464 153 397 150 464 153 l 472 4 b 331 -17 472 4 379 -17 b 224 -3 288 -17 251 -12 l 224 -51 b 394 -176 332 -53 394 -72 "}}}
